<?xml version="1.0" encoding="utf-8"?>
<!-- Generator: Adobe Illustrator 22.0.1, SVG Export Plug-In . SVG Version: 6.00 Build 0)  -->
<svg version="1.1" id="圖層_1" xmlns="http://www.w3.org/2000/svg" xmlns:xlink="http://www.w3.org/1999/xlink" x="0px" y="0px"
	 viewBox="0 0 41.4 41.8" style="enable-background:new 0 0 41.4 41.8;" xml:space="preserve">
<style type="text/css">
	.st0{fill:#FFFFFF;}
</style>
<g>
	<g>
		<g>
			<path class="st0" d="M32.1,5.5H8.5c-2,0-3.6,1.6-3.6,3.6v23.5c0,2,1.6,3.6,3.6,3.6h23.5c2,0,3.6-1.6,3.6-3.6V9.1
				C35.7,7.1,34,5.5,32.1,5.5z M33.3,32.7c0,0.7-0.5,1.2-1.2,1.2h-6.8v-9.8h3.7l0.6-3.7h-4.3v-2.6c0-1,0.8-1.8,1.8-1.8h2.5v-3.7H27
				c-3.1,0-5.5,2.5-5.5,5.5v2.6h-3.6v3.7h3.6v9.8h-13c-0.7,0-1.2-0.5-1.2-1.2V9.1c0-0.7,0.5-1.2,1.2-1.2h23.5c0.7,0,1.2,0.5,1.2,1.2
				V32.7z"/>
		</g>
	</g>
</g>
</svg>
