<?xml version="1.0" encoding="utf-8"?>
<!-- Generator: Adobe Illustrator 22.0.1, SVG Export Plug-In . SVG Version: 6.00 Build 0)  -->
<svg version="1.1" id="圖層_1" xmlns="http://www.w3.org/2000/svg" xmlns:xlink="http://www.w3.org/1999/xlink" x="0px" y="0px"
	 viewBox="0 0 41.4 41.8" style="enable-background:new 0 0 41.4 41.8;" xml:space="preserve">
<style type="text/css">
	.st0{fill:#FFFFFF;}
</style>
<g>
	<g>
		<path class="st0" d="M27.6,5.6H13.8c-4.7,0-8.5,3.8-8.5,8.5v13.7c0,4.7,3.8,8.5,8.5,8.5h13.7c4.7,0,8.5-3.8,8.5-8.5V14
			C36,9.4,32.2,5.6,27.6,5.6z M33.3,27.8c0,3.2-2.6,5.7-5.7,5.7H13.8c-3.2,0-5.7-2.6-5.7-5.7V14c0-3.2,2.6-5.7,5.7-5.7h13.7
			c3.2,0,5.7,2.6,5.7,5.7L33.3,27.8L33.3,27.8z"/>
		<path class="st0" d="M20.7,13c-4.4,0-7.9,3.5-7.9,7.9c0,4.4,3.5,7.9,7.9,7.9c4.4,0,7.9-3.5,7.9-7.9C28.6,16.5,25,13,20.7,13z
			 M20.7,26.1c-2.9,0-5.2-2.3-5.2-5.2c0-2.9,2.3-5.2,5.2-5.2c2.9,0,5.2,2.3,5.2,5.2C25.9,23.8,23.5,26.1,20.7,26.1z"/>
		<path class="st0" d="M28.9,10.7c-0.5,0-1,0.2-1.4,0.6c-0.4,0.4-0.6,0.9-0.6,1.4c0,0.5,0.2,1,0.6,1.4c0.4,0.4,0.9,0.6,1.4,0.6
			c0.5,0,1-0.2,1.4-0.6c0.4-0.4,0.6-0.9,0.6-1.4c0-0.5-0.2-1-0.6-1.4C30,10.9,29.4,10.7,28.9,10.7z"/>
	</g>
</g>
</svg>
