<?xml version="1.0" encoding="utf-8"?>
<!-- Generator: Adobe Illustrator 22.0.1, SVG Export Plug-In . SVG Version: 6.00 Build 0)  -->
<svg version="1.1" id="圖層_1" xmlns="http://www.w3.org/2000/svg" xmlns:xlink="http://www.w3.org/1999/xlink" x="0px" y="0px"
	 viewBox="0 0 41.4 41.8" style="enable-background:new 0 0 41.4 41.8;" xml:space="preserve">
<style type="text/css">
	.st0{fill:#FFFFFF;}
</style>
<g>
	<g>
		<g>
			<path class="st0" d="M32.8,9.8H8.5c-1.7,0-3.2,1.4-3.2,3.2v15.9c0,1.7,1.4,3.2,3.2,3.2h24.3c1.7,0,3.2-1.4,3.2-3.2V13
				C36,11.2,34.6,9.8,32.8,9.8z M31.8,12.1l-10.4,8.2c-0.4,0.3-1,0.3-1.4,0L9.6,12.1H31.8z M33.7,28.8c0,0.5-0.4,0.8-0.8,0.8H8.5
				c-0.5,0-0.8-0.4-0.8-0.8V13.6l10.8,8.6c0.6,0.5,1.4,0.8,2.2,0.8c0.8,0,1.6-0.3,2.2-0.8l10.8-8.6V28.8L33.7,28.8z"/>
			<path class="st0" d="M32.8,32H8.5c-1.8,0-3.2-1.4-3.2-3.2V13c0-1.8,1.4-3.2,3.2-3.2h24.3c1.8,0,3.2,1.4,3.2,3.2v15.9
				C36,30.6,34.6,32,32.8,32z M8.5,9.8c-1.7,0-3.1,1.4-3.1,3.1v15.9c0,1.7,1.4,3.1,3.1,3.1h24.3c1.7,0,3.1-1.4,3.1-3.1V13
				c0-1.7-1.4-3.1-3.1-3.1H8.5z M32.8,29.7H8.5c-0.5,0-0.9-0.4-0.9-0.9V13.6l10.9,8.6c0.6,0.5,1.4,0.7,2.2,0.7
				c0.8,0,1.5-0.3,2.2-0.7l10.9-8.6v15.3C33.7,29.3,33.3,29.7,32.8,29.7z M7.7,13.7v15.2c0,0.4,0.4,0.8,0.8,0.8h24.3
				c0.4,0,0.8-0.4,0.8-0.8V13.7l-10.8,8.5c-0.6,0.5-1.4,0.8-2.2,0.8c-0.8,0-1.6-0.3-2.2-0.8L7.7,13.7z M20.7,20.6
				c-0.3,0-0.5-0.1-0.7-0.3L9.5,12.1h22.4l-10.4,8.3C21.2,20.6,21,20.6,20.7,20.6z M9.7,12.2L20,20.3c0.2,0.2,0.5,0.2,0.7,0.2
				c0.3,0,0.5-0.1,0.7-0.2l10.3-8.2H9.7z"/>
		</g>
	</g>
</g>
</svg>
