<?xml version="1.0" encoding="utf-8"?>
<!-- Generator: Adobe Illustrator 16.0.0, SVG Export Plug-In . SVG Version: 6.00 Build 0)  -->
<!DOCTYPE svg PUBLIC "-//W3C//DTD SVG 1.1//EN" "http://www.w3.org/Graphics/SVG/1.1/DTD/svg11.dtd">
<svg version="1.1" id="圖層_1" xmlns="http://www.w3.org/2000/svg" xmlns:xlink="http://www.w3.org/1999/xlink" x="0px" y="0px"
	 width="1852.596px" height="253.572px" viewBox="0 0 1852.596 253.572" enable-background="new 0 0 1852.596 253.572"
	 xml:space="preserve">
<path fill="#E4E44C" d="M99.611,163.417c16.04-7.526,32.112-14.984,48.192-22.423c35.697-16.513,74.786-27.817,113.27-35.449
	c39.177-7.771,79.137-12.699,119.071-13.895c22.348-0.669,44.853-0.387,67.182,0.777c116.218,6.053,226.099,31.316,339.456,54.221
	c112.877,22.807,227.604,35.221,342.84,29.994c48.783-2.212,97.472-7.618,145.509-16.371c47.841-8.718,95.247-20.066,141.771-34.228
	c40.987-12.476,81.567-25.851,120.231-44.478c39.086-18.829,76.646-40.981,117.352-56.3C1697.462,9.092,1741.407,2.132,1787.035,0H0
	v202.405c0,0,25.6-12.174,73.95-26.948C82.501,171.438,91.058,167.43,99.611,163.417z"/>
</svg>
