<?xml version="1.0" encoding="utf-8"?>
<!-- Generator: Adobe Illustrator 16.0.0, SVG Export Plug-In . SVG Version: 6.00 Build 0)  -->
<!DOCTYPE svg PUBLIC "-//W3C//DTD SVG 1.1//EN" "http://www.w3.org/Graphics/SVG/1.1/DTD/svg11.dtd">
<svg version="1.1" id="圖層_1" xmlns="http://www.w3.org/2000/svg" xmlns:xlink="http://www.w3.org/1999/xlink" x="0px" y="0px"
	 width="1920px" height="724px" viewBox="0 0 1920 724" enable-background="new 0 0 1920 724" xml:space="preserve">
<path fill="#C8E7F1" d="M1787.737,38.308c-45.628,2.132-89.573,9.092-132.55,25.265c-40.706,15.319-78.266,37.471-117.352,56.3
	c-38.664,18.627-79.244,32.002-120.231,44.478c-46.524,14.161-93.931,25.51-141.771,34.228
	c-48.037,8.753-96.726,14.159-145.509,16.371c-115.236,5.227-229.963-7.188-342.84-29.994
	c-113.357-22.904-223.238-48.168-339.456-54.221c-22.329-1.164-44.834-1.446-67.182-0.777
	c-39.935,1.196-79.895,6.125-119.071,13.895c-38.483,7.632-77.572,18.937-113.27,35.449c-16.08,7.438-32.152,14.896-48.192,22.423
	c-8.554,4.013-17.11,8.021-25.661,12.04c-48.351,14.774-73.95,26.948-73.95,26.948V724h1918.597V45.642
	c-26.305-3.368-53.028-6.153-79.729-7.334H1787.737z"/>
</svg>
