<?xml version="1.0" encoding="utf-8"?>
<!-- Generator: Adobe Illustrator 22.0.1, SVG Export Plug-In . SVG Version: 6.00 Build 0)  -->
<svg version="1.1" id="圖層_1" xmlns="http://www.w3.org/2000/svg" xmlns:xlink="http://www.w3.org/1999/xlink" x="0px" y="0px"
	 viewBox="0 0 1920 1242" style="enable-background:new 0 0 1920 1242;" xml:space="preserve">
<style type="text/css">
	.st0{clip-path:url(#SVGID_2_);}
	.st1{fill:#E4E44C;}
	.st2{fill:#A2CDD7;}
	.st3{fill:#C8E7F1;}
</style>
<g>
	<defs>
		<rect id="SVGID_1_" x="0.4" y="-0.2" width="1918.6" height="1243"/>
	</defs>
	<clipPath id="SVGID_2_">
		<use xlink:href="#SVGID_1_"  style="overflow:visible;"/>
	</clipPath>
	<g class="st0">
		<rect x="0.4" y="-0.2" class="st1" width="1918.6" height="1243"/>
		<path class="st2" d="M71.7,1217c9.4-4.4,18.9-8.9,28.3-13.3c16-7.5,32.1-15,48.2-22.4c35.7-16.5,74.8-27.8,113.3-35.4
			c39.2-7.8,79.1-12.7,119.1-13.9c22.3-0.7,44.9-0.4,67.2,0.8c116.2,6.1,226.1,31.3,339.5,54.2c112.9,22.8,227.6,35.2,342.8,30
			c48.8-2.2,97.5-7.6,145.5-16.4c47.8-8.7,95.2-20.1,141.8-34.2c41-12.5,81.6-25.9,120.2-44.5c39.1-18.8,76.6-41,117.4-56.3
			c45.1-17,91.3-23.8,139.4-25.6c41.5-1.5,83.6,2.4,124.8,7.6v565.2H71.7V1217z"/>
		<path class="st3" d="M0.4,1242.7c0,0,273.4-130,721.3-56c70,11.6,140.3,21,211,26.7c145.8,11.8,292.2,10.4,436.2-17.5
			c41.3-8,82.4-17.7,123-28.9c69.1-19,136.5-44.3,206.5-60c39.5-8.8,79.9-14.6,120.4-13.7c33.7,0.8,67.1,5.1,100.2,11.8v507.7H-1
			L0.4,1242.7z"/>
	</g>
</g>
</svg>
