<?xml version="1.0" encoding="utf-8"?>
<!-- Generator: Adobe Illustrator 22.0.1, SVG Export Plug-In . SVG Version: 6.00 Build 0)  -->
<svg version="1.1" id="圖層_1" xmlns="http://www.w3.org/2000/svg" xmlns:xlink="http://www.w3.org/1999/xlink" x="0px" y="0px"
	 viewBox="0 0 1917 813.3" style="enable-background:new 0 0 1917 813.3;" xml:space="preserve">
<style type="text/css">
	.st0{fill:#FFFFFF;}
	.st1{fill:#E4E44C;}
	.st2{opacity:0.25;fill:#FFFFFF;enable-background:new    ;}
	.st3{fill:#E09F5A;}
	.st4{fill:#E7C45F;}
	.st5{fill:url(#SVGID_1_);}
	.st6{fill:#231815;}
	.st7{font-family:'MicrosoftJhengHeiBold';}
	.st8{font-size:22px;}
	.st9{fill:#C31D1F;}
	.st10{fill:#C9C9C9;}
	.st11{fill:#1F7C7F;}
	.st12{fill:#11686D;}
	.st13{fill:#F5D084;}
	.st14{fill:#F1E1C5;}
	.st15{fill:#40A2A8;}
	.st16{fill:#62C1C7;}
	.st17{fill:#A3D7DE;}
	.st18{fill:#969696;}
	.st19{fill:#FAE2B6;}
	.st20{fill:#4D4D4D;}
	.st21{fill:#EAEAEA;}
	.st22{fill:#5474B3;}
	.st23{fill:#7B98CE;}
	.st24{fill:#F6B456;}
	.st25{fill:#E46A3D;}
	.st26{fill:#A5BFE3;}
	.st27{fill:#D9D9D9;}
	.st28{fill:#F3F3F4;}
	.st29{fill:#7190CA;}
	.st30{fill:#D5A181;}
	.st31{fill:#2C2E45;}
	.st32{fill:#2D2F47;}
	.st33{fill:#3E4167;}
	.st34{fill:#C7BAB2;}
	.st35{fill:#E8C6A0;}
	.st36{fill:#27293E;}
	.st37{fill:#353855;}
	.st38{fill:#7A6F66;}
	.st39{fill:#1F202D;}
	.st40{fill:#967660;}
	.st41{fill:#AE4040;}
	.st42{fill:#E4D6CF;}
	.st43{opacity:0.2;fill:#FFFFFF;enable-background:new    ;}
	.st44{fill:#6A87C1;}
	.st45{opacity:0.3;fill:#FFFFFF;enable-background:new    ;}
	.st46{fill:#565757;}
	.st47{fill:#DACFC6;}
	.st48{fill:#E1D4CC;}
	.st49{fill:#C2955D;}
	.st50{fill:#43476D;}
	.st51{fill:#3F4048;}
	.st52{fill:#292B40;}
</style>
<rect x="3" class="st0" width="1914" height="208.6"/>
<path class="st1" d="M1921,96c0,0-247.6-132-641.1-49.3c-56,12-182.8,60-228.1,76c-45.4,16-200.1,78.7-441.6,45.4
	c-99.7-15.6-199.3-35.9-292.8-74.6C260,69.7,202.3,48.9,140.1,42.6C107.8,39.3,73.4,37,41.5,44c-3.9,0.8-40.6,9.5-40.6,15.6v310.3
	H1921V96z"/>
<rect x="2.5" y="180" class="st1" width="1918.5" height="633.3"/>
<g>
	<path class="st2" d="M1590.5,273.6c-104.2-36.7-253.8,0.6-507.8-60.6C828.6,151.7,865.3,342.4,895,383.5s25.7,57.5-21.8,179.4
		C825.6,684.8,970,694.7,970,694.7l469,21.4c277.5-7.1,26.6-188,164.9-241.2C1742.2,421.6,1661.1,298.4,1590.5,273.6z"/>
	<path class="st2" d="M829.3,437c2.5-181.2,206.4-219.9,437.4-155.3s358.9-44.9,377.1,147.7s-185.1,316.1-381.5,217.8
		C1066,548.9,824.8,755.9,829.3,437z"/>
	<path class="st2" d="M900.5,449c31.8,167.5,240.8,123.6,277,233.1c36.3,109.5,414.6,31.7,442.3-124.5
		c17.5-98.4,29-320.4-229.6-337.2C1131.7,203.5,868.7,281.5,900.5,449z"/>
</g>
<path class="st3" d="M1090.8,501.1c5.8,13.4,14.4,23.5,24.1,28.3c-0.1,1.3-0.1,2.5-0.1,3.8c0,25.2,18.8,45.7,42.2,46.3
	c6.4,20.8,24.7,35.8,46.3,35.8c26.9,0,48.7-23.3,48.7-52.1V263.4c0-22-15.3-39.8-34.2-39.8c-13.6,0-25.3,9.2-30.8,22.6
	c-3.2-0.8-6.5-1.2-9.9-1.2c-22,0-39.8,17.8-39.8,39.8v0.1c-22.6,1.6-40.4,21.7-40.4,46.2c0,8.9,2.3,17.2,6.4,24.3
	c-12,6.9-20.1,19.8-20.1,34.6c0,11.1,4.5,21.1,11.8,28.3c-7.5,10.3-12,25.6-12.1,42.7C1082.9,461,1082.5,478.7,1090.8,501.1z"/>
<g>
	<polygon class="st4" points="1341.9,287.4 1340.4,286 1381.1,245.3 1443.1,245.3 1443.1,247.3 1382,247.3 	"/>
</g>
<g>
	<polygon class="st4" points="1419.7,497.2 1418.3,495.8 1449.1,465 1540.1,465 1540.1,467 1449.9,467 	"/>
</g>
<g>
	<polygon class="st4" points="1110.7,318.3 1112.1,319.8 1081.3,350.6 1017.2,350.6 1017.2,348.6 1080.5,348.6 	"/>
</g>
<g>
	<polygon class="st4" points="1572.8,647.7 1405.4,647.7 1346,588.3 1347.4,586.9 1406.2,645.7 1572.8,645.7 	"/>
</g>
<linearGradient id="SVGID_1_" gradientUnits="userSpaceOnUse" x1="1264.6" y1="291.7927" x2="1433.7141" y2="291.7927" gradientTransform="matrix(1 0 0 -1 0 711.1853)">
	<stop  offset="0" style="stop-color:#DE9959"/>
	<stop  offset="1" style="stop-color:#E9C960"/>
</linearGradient>
<path class="st5" d="M1421.6,418.2c7.3-7.2,11.8-17.2,11.8-28.3c0-14.8-8.1-27.7-20.1-34.6c4.1-7.1,6.4-15.4,6.4-24.3
	c0-24.5-17.8-44.6-40.4-46.2v-0.1c0-22-17.8-39.8-39.8-39.8c-3.4,0-6.7,0.4-9.9,1.2c-5.5-13.4-17.2-22.6-30.8-22.6
	c-18.9,0-34.2,17.8-34.2,39.8v299.9c0,28.8,21.8,52.1,48.7,52.1c21.6,0,39.9-15,46.3-35.8c23.4-0.6,42.2-21.1,42.2-46.3
	c0-1.3-0.1-2.6-0.1-3.8c15.7-7.8,28.6-29.8,31.4-56.8C1435.5,450.8,1430.7,430.8,1421.6,418.2z"/>
<g>
	<path class="st0" d="M1357.9,570.2l-2.4-0.5l1.2,0.2l-1.2-0.2c0-0.1,2.1-11.4-4.6-19.6c-4.8-5.8-12.9-8.8-24-8.8
		c-11.5,0-19.7-3.2-24.5-9.5c-7.3-9.6-3.7-22.9-3.5-23.4l2.3,0.7c0,0.1-3.5,12.7,3.1,21.3c4.3,5.7,11.9,8.5,22.6,8.5
		c11.9,0,20.6,3.3,25.9,9.7C1360.3,557.7,1358,569.7,1357.9,570.2z"/>
</g>
<g>
	<path class="st0" d="M1326.9,526.2c0-0.8-0.8-18.7,11.1-31.3c7.4-7.8,18.1-11.8,31.6-11.8c12,0,20.8-3.5,26.2-10.4
		c10.1-12.9,5.1-33.6,5-33.8l2.3-0.6c0.2,0.9,5.3,22-5.5,35.8c-5.9,7.5-15.3,11.3-28.1,11.3c-12.9,0-22.9,3.7-29.9,11
		c-11.3,11.8-10.5,29.4-10.5,29.6L1326.9,526.2z"/>
</g>
<g>
	<path class="st0" d="M1373.5,458.9c-8.4,0-18.3-1.6-26.1-7.6c-8.8-6.7-13.3-17.6-13.3-32.4c0-15.5-4.4-27.6-13.2-35.9
		c-14-13.2-34.4-12.1-34.6-12.1l-0.1-2.4c0.9-0.1,21.7-1.2,36.4,12.7c9.3,8.7,14,21.4,14,37.6c0,14,4.1,24.3,12.3,30.5
		c15.8,12,41.7,5,42,4.9l0.6,2.3C1390.8,456.8,1383.1,458.9,1373.5,458.9z"/>
</g>
<g>
	<path class="st0" d="M1312.6,365.6l-2.4-0.3c0-0.4,1-8.7,5.6-17.1c6.3-11.3,16.2-17.2,28.8-17.2c30.1,0,34.2-17.3,34.2-34.2h2.4
		c0,11.5-2.2,19.6-6.8,25.5c-5.9,7.4-15.6,11.1-29.7,11.1c-11.8,0-20.8,5.4-26.7,15.9C1313.6,357.4,1312.7,365.5,1312.6,365.6z"/>
</g>
<g>
	<path class="st0" d="M1345.8,410.8c-2.7,0-4.6-0.3-4.8-0.3l0.4-2.4c0.1,0,12.3,2,20.5-4.9c5.1-4.3,7.7-11.1,7.7-20.3
		c0-9.4,2.8-16.7,8.5-21.5c10-8.6,24.9-6.5,25.5-6.4l-0.4,2.4c-0.2,0-14.5-2-23.6,5.9c-5.1,4.4-7.6,11-7.6,19.7
		c0,9.9-2.9,17.4-8.5,22.2C1357.7,409.9,1350.4,410.8,1345.8,410.8z M1403.2,357.3L1403.2,357.3l0.2-1.2L1403.2,357.3z"/>
</g>
<g>
	<path class="st0" d="M1327.8,329.4c-2.4,0-18.5-0.4-28.2-9.9c-4.8-4.7-7.3-10.9-7.3-18.4c0-14.5,9-19.9,17.7-25.1
		s16.8-10.1,16.8-23.6h2.4c0,14.9-9.1,20.4-18,25.7c-8.5,5.1-16.6,9.9-16.6,23.1c0,6.8,2.2,12.5,6.5,16.7c9.6,9.4,26.6,9.2,26.8,9.2
		v2.4C1328.1,329.4,1328,329.4,1327.8,329.4z"/>
</g>
<g>
	<path class="st0" d="M1280.4,477h-2.4c0-9.2,2.6-30.7,26.3-30.7c8.9,0,15.4-3.8,19.3-11.2c3-5.6,3.3-11.4,3.3-11.5l2.4,0.1
		c0,0.3-0.3,6.3-3.5,12.4c-3,5.7-9.1,12.5-21.5,12.5C1283.5,448.6,1280.4,466.4,1280.4,477z"/>
</g>
<g>
	<path class="st0" d="M1158.7,570.2c-0.1-0.5-2.4-12.5,5.1-21.6c5.3-6.4,14-9.7,25.9-9.7c10.7,0,18.3-2.9,22.6-8.5
		c6.6-8.7,3.1-21.2,3.1-21.3l2.3-0.7c0.2,0.6,3.8,13.8-3.5,23.4c-4.8,6.3-13,9.5-24.5,9.5c-11.2,0-19.2,3-24,8.8
		c-6.8,8.2-4.7,19.5-4.6,19.6L1158.7,570.2z"/>
</g>
<g>
	<path class="st0" d="M1189.7,526.2l-2.4-0.1c0-0.2,0.8-17.7-10.5-29.6c-6.9-7.3-17-11-29.9-11c-12.7,0-22.2-3.8-28.1-11.3
		c-10.8-13.8-5.7-34.9-5.5-35.8l2.3,0.6c-0.1,0.2-5,20.9,5,33.8c5.4,6.9,14.2,10.4,26.2,10.4c13.6,0,24.2,4,31.6,11.8
		C1190.6,507.5,1189.8,525.4,1189.7,526.2z"/>
</g>
<g>
	<path class="st0" d="M1143.1,458.9c-9.6,0-17.3-2.1-17.9-2.3l0.6-2.3c0.3,0.1,26.2,7.1,42-4.9c8.2-6.2,12.3-16.5,12.3-30.5
		c0-16.2,4.7-28.9,14-37.6c14.8-13.9,35.6-12.8,36.4-12.7l-0.1,2.4c-0.2,0-20.7-1.1-34.7,12.1c-8.8,8.2-13.2,20.3-13.2,35.8
		c0,14.8-4.5,25.7-13.3,32.4C1161.4,457.3,1151.5,458.9,1143.1,458.9z"/>
</g>
<g>
	<path class="st0" d="M1204,365.6c0-0.1-0.9-8.2-5.4-16.2c-5.9-10.6-14.9-15.9-26.7-15.9c-14.1,0-23.8-3.6-29.7-11.1
		c-4.6-5.9-6.8-14-6.8-25.5h2.4c0,16.9,4.1,34.2,34.2,34.2c12.6,0,22.5,6,28.8,17.2c4.7,8.4,5.6,16.7,5.6,17.1L1204,365.6z"/>
</g>
<g>
	<path class="st0" d="M1170.9,410.8c-4.7,0-11.9-0.9-17.7-5.7c-5.7-4.8-8.5-12.2-8.5-22.2c0-8.7-2.6-15.3-7.6-19.7
		c-9.1-7.9-23.5-5.9-23.6-5.9l-0.3-2.4c0.6-0.1,15.6-2.2,25.5,6.4c5.6,4.8,8.5,12.1,8.5,21.5c0,9.2,2.6,16,7.7,20.3
		c8.2,6.9,20.4,4.9,20.5,4.9l0.4,2.4C1175.5,410.5,1173.6,410.8,1170.9,410.8z"/>
</g>
<g>
	<path class="st0" d="M1188.8,329.4c-0.2,0-0.3,0-0.3,0V327c0.2,0,17.2,0.2,26.8-9.2c4.3-4.3,6.5-9.9,6.5-16.7
		c0-13.1-8-18-16.6-23.1c-8.8-5.3-18-10.8-18-25.7h2.4c0,13.6,8.2,18.5,16.8,23.6c8.7,5.2,17.7,10.6,17.7,25.1
		c0,7.5-2.4,13.7-7.3,18.4C1207.3,329,1191.3,329.4,1188.8,329.4z"/>
</g>
<g>
	<path class="st0" d="M1238.6,477h-2.4c0-10.6-3.1-28.3-23.9-28.3c-12.3,0-18.5-6.8-21.5-12.5c-3.2-6.1-3.5-12.1-3.5-12.4l2.4-0.1
		l0,0l0,0c0,0.1,0.3,5.8,3.3,11.5c3.9,7.4,10.4,11.2,19.3,11.2C1236.1,446.2,1238.6,467.7,1238.6,477z"/>
</g>
<g>
	<text transform="matrix(1 0 0 1 1488.3721 339.9623)" class="st6 st7 st8">講座/課程/團體教學邀約</text>
</g>
<g>
	<text transform="matrix(1 0 0 1 1643.5991 528.931)" class="st6 st7 st8">不定期交易提示</text>
</g>
<g>
	<text transform="matrix(1 0 0 1 888.6172 386.6023)" class="st6 st7 st8">交易技術指導</text>
	<text transform="matrix(1 0 0 1 934.8172 416.6023)" class="st6 st7 st8">資源共享</text>
</g>
<g>
	
		<rect x="1465.1" y="189.3" transform="matrix(0.956 -0.2934 0.2934 0.956 -5.125 451.4788)" class="st9" width="74.5" height="107"/>
	<polygon class="st10" points="1475.4,201.5 1501.9,193.4 1502.5,196.3 1476.1,204.4 	"/>
	<path class="st11" d="M1472,197.7l9.4-2.9l-4.6-14.9c-0.9-2.8,0.7-5.8,3.5-6.7l0,0c2.8-0.9,5.8,0.7,6.7,3.5l4.6,14.9l9.4-2.9
		c1.6-0.5,3.3,0.4,3.8,2l2.1,6.9l-34.7,10.7l-2.1-6.9C1469.5,199.9,1470.4,198.2,1472,197.7 M1481.2,176c-1.3,0.4-2,1.8-1.6,3.1
		c0.4,1.3,1.8,2,3.1,1.6c1.3-0.4,2-1.8,1.6-3.1C1483.9,176.4,1482.5,175.7,1481.2,176"/>
	
		<rect x="1468.9" y="196.5" transform="matrix(0.956 -0.2934 0.2934 0.956 -5.5984 451.7001)" class="st0" width="67.9" height="96"/>
	
		<rect x="1484" y="212.9" transform="matrix(0.956 -0.2934 0.2934 0.956 3.2874 449.6015)" class="st10" width="32.6" height="1.8"/>
	
		<rect x="1484.9" y="216" transform="matrix(0.956 -0.2934 0.2934 0.956 2.4377 449.9942)" class="st10" width="32.6" height="1.8"/>
	
		<rect x="1486.3" y="221.5" transform="matrix(0.956 -0.2934 0.2934 0.956 0.5097 448.1044)" class="st10" width="15.3" height="1.8"/>
	<path class="st10" d="M1473.1,221.2l6.8-2.1l0.6-0.2l0.2,0.6l2.1,6.8l0.2,0.6l-0.6,0.2l-6.8,2.1l-0.6,0.2l-0.2-0.6l-2.1-6.8
		l-0.2-0.6L1473.1,221.2z M1479.7,220.4l-5.7,1.7l1.7,5.7l5.7-1.7L1479.7,220.4z"/>
	<path class="st12" d="M1479.3,214.1c0.4-0.4,1-0.4,1.4-0.1c0.4,0.4,0.4,1,0.1,1.4c-0.5,0.6-1.4,2.6-1.9,4.7c-0.3,1.5-0.5,3-0.1,4.1
		c0.2,0.5-0.1,1.1-0.6,1.2c-0.4,0.1-0.9-0.1-1.1-0.4c-1.8-2.6-2.6-3.3-3.7-4.3c-0.6-0.5-1.2-1-2-1.8c-0.4-0.4-0.4-1,0-1.4
		s1-0.4,1.4,0c0.8,0.8,1.4,1.3,1.9,1.7c0.8,0.7,1.4,1.2,2.2,2.1c0.1-0.6,0.2-1.1,0.3-1.7C1477.5,217.3,1478.6,215,1479.3,214.1"/>
	
		<rect x="1489.8" y="231.6" transform="matrix(0.956 -0.2934 0.2934 0.956 -1.9383 452.1213)" class="st10" width="32.6" height="1.8"/>
	
		<rect x="1490.8" y="234.6" transform="matrix(0.956 -0.2935 0.2935 0.956 -2.7639 452.678)" class="st10" width="32.6" height="1.8"/>
	
		<rect x="1492.1" y="240.2" transform="matrix(0.956 -0.2935 0.2935 0.956 -4.7313 450.7672)" class="st10" width="15.3" height="1.8"/>
	<path class="st10" d="M1478.9,239.9l6.8-2.1l0.6-0.2l0.2,0.6l2.1,6.8l0.2,0.6l-0.6,0.2l-6.8,2.1l-0.6,0.2l-0.2-0.6l-2.1-6.8
		l-0.2-0.6L1478.9,239.9z M1485.4,239.1l-5.7,1.7l1.7,5.7l5.7-1.7L1485.4,239.1z"/>
	<path class="st12" d="M1485.1,232.9c0.3-0.4,1-0.4,1.4-0.1s0.4,1,0.1,1.4c-0.6,0.6-1.4,2.6-1.9,4.7c-0.3,1.5-0.5,3-0.1,4.1
		c0.2,0.5-0.1,1.1-0.6,1.2c-0.4,0.1-0.9-0.1-1.1-0.4c-1.8-2.6-2.6-3.3-3.7-4.3c-0.6-0.5-1.2-1-2-1.8c-0.4-0.4-0.4-1,0-1.4
		s1-0.4,1.4,0c0.8,0.8,1.4,1.3,1.9,1.7c0.8,0.7,1.4,1.2,2.2,2.1c0.1-0.6,0.2-1.1,0.3-1.7C1483.3,236,1484.4,233.7,1485.1,232.9"/>
	
		<rect x="1495.5" y="250.4" transform="matrix(0.956 -0.2934 0.2934 0.956 -7.1859 454.6164)" class="st10" width="32.6" height="1.8"/>
	
		<rect x="1496.4" y="253.5" transform="matrix(0.956 -0.2934 0.2934 0.956 -8.0542 455.0201)" class="st10" width="32.6" height="1.8"/>
	
		<rect x="1497.8" y="259" transform="matrix(0.956 -0.2934 0.2934 0.956 -10.0057 453.1359)" class="st10" width="15.3" height="1.8"/>
	<path class="st10" d="M1484.6,258.6l6.8-2.1l0.6-0.2l0.2,0.6l2.1,6.8l0.2,0.6l-0.6,0.2l-6.8,2.1l-0.6,0.2l-0.2-0.6l-2.1-6.8
		l-0.2-0.6L1484.6,258.6z M1491.2,257.9l-5.7,1.7l1.7,5.7l5.7-1.7L1491.2,257.9z"/>
	<path class="st12" d="M1490.8,251.6c0.4-0.4,1-0.4,1.4-0.1s0.4,1,0.1,1.4c-0.5,0.6-1.4,2.6-1.9,4.7c-0.3,1.5-0.5,3-0.1,4.1
		c0.2,0.5-0.1,1.1-0.6,1.2c-0.4,0.1-0.9-0.1-1.1-0.4c-1.8-2.6-2.6-3.3-3.7-4.3c-0.6-0.5-1.2-1-2-1.8c-0.4-0.4-0.4-1,0-1.4
		s1-0.4,1.4,0c0.8,0.8,1.4,1.3,1.9,1.7c0.8,0.7,1.4,1.2,2.2,2.1c0.1-0.6,0.2-1.1,0.3-1.7C1489,254.7,1490.1,252.4,1490.8,251.6"/>
	
		<rect x="1501.3" y="269.1" transform="matrix(0.956 -0.2934 0.2934 0.956 -12.4408 457.1495)" class="st10" width="32.6" height="1.8"/>
	
		<rect x="1502.2" y="272.1" transform="matrix(0.956 -0.2934 0.2934 0.956 -13.2835 457.5406)" class="st10" width="32.6" height="1.8"/>
	
		<rect x="1503.5" y="277.7" transform="matrix(0.956 -0.2934 0.2934 0.956 -15.2353 455.6272)" class="st10" width="15.3" height="1.8"/>
	<path class="st10" d="M1490.4,277.4l6.8-2.1l0.6-0.2l0.2,0.6l2.1,6.8l0.2,0.6l-0.6,0.2l-6.8,2.1l-0.6,0.2l-0.2-0.6l-2.1-6.8
		l-0.2-0.6L1490.4,277.4z M1496.9,276.6l-5.7,1.7l1.7,5.7l5.7-1.7L1496.9,276.6z"/>
	<path class="st12" d="M1496.6,270.3c0.4-0.4,1-0.4,1.4-0.1c0.4,0.4,0.4,1,0.1,1.4c-0.5,0.6-1.4,2.6-1.9,4.7c-0.3,1.5-0.5,3-0.1,4.1
		c0.2,0.5-0.1,1.1-0.6,1.2c-0.4,0.1-0.9-0.1-1.1-0.4c-1.8-2.6-2.6-3.3-3.7-4.3c-0.6-0.5-1.2-1-2-1.8c-0.4-0.4-0.4-1,0-1.4
		s1-0.4,1.4,0c0.8,0.8,1.4,1.3,1.9,1.7c0.8,0.7,1.4,1.2,2.2,2.1c0.1-0.6,0.2-1.1,0.3-1.7C1494.8,273.5,1495.9,271.2,1496.6,270.3"/>
	<path class="st9" d="M1500.5,224.6l-8.5-1.5l4.6,7.2l30.3,20.1c0.9,0.6,2,0.3,2.6-0.5l1.7-2.6c0.6-0.9,0.3-2-0.5-2.6L1500.5,224.6z
		"/>
	<path class="st0" d="M1500.5,224.6l-8.5-1.5l4.6,7.2l28,18.6c1.7-1.8,3-3.7,3.8-5.8L1500.5,224.6z"/>
	<path class="st13" d="M1500.5,224.6l-8.5-1.5l4.6,7.2l26.2,17.4c1.7-1.8,3-3.7,3.8-5.8L1500.5,224.6z"/>
	<path class="st14" d="M1500.5,224.6l-8.5-1.5l4.6,7.2c0.8-0.8,1.5-1.7,2.2-2.7C1499.5,226.7,1500,225.7,1500.5,224.6"/>
	<path class="st12" d="M1494.8,223.7l-2.8-0.5l1.5,2.4c0.3-0.3,0.5-0.6,0.7-0.9C1494.5,224.3,1494.6,224,1494.8,223.7"/>
</g>
<g>
	<path class="st0" d="M1609.5,437c18.3,0,33.2,14.9,33.2,33.2c0,12-6.3,22.4-15.8,28.3l-3.5,27.4h-27.8l-3.5-27.4
		c-9.5-5.8-15.8-16.3-15.8-28.3C1576.3,451.9,1591.2,437,1609.5,437"/>
	<path class="st15" d="M1606.9,510.6c0,0.7-0.5,1.2-1.2,1.2s-1.2-0.5-1.2-1.2v-26.1l-8.7-12.4c-0.4-0.5-0.2-1.3,0.3-1.7
		c0.2-0.1,0.3-0.2,0.5-0.2c1-0.1,1.8-0.5,2.5-0.9c-0.3-0.5-0.6-1.1-0.8-1.7c-0.3-0.8-0.4-1.7-0.5-2.5c0-0.8,0-1.6,0.2-2.3
		c0.4-1.7,1.5-2.9,3-2.9c1.3,0,2.3,0.8,2.8,2.1c0.3,0.7,0.4,1.5,0.4,2.5c0,0.9-0.2,1.8-0.5,2.7c-0.3,0.8-0.7,1.5-1.2,2.2
		c0.7,0.5,1.7,0.8,2.8,0.8c1,0,1.8-0.2,2.5-0.6c-0.4-0.6-0.7-1.3-1-1.9c-0.3-0.8-0.4-1.7-0.5-2.5c0-0.8,0-1.6,0.2-2.3
		c0.4-1.7,1.5-2.9,3-2.9s2.6,1.2,3,2.9c0.2,0.7,0.2,1.5,0.2,2.3s-0.2,1.7-0.5,2.5c-0.2,0.7-0.6,1.3-1,1.9c0.7,0.4,1.5,0.6,2.5,0.6
		c1.1,0,2.1-0.3,2.8-0.8c-0.5-0.7-0.9-1.5-1.2-2.2c-0.3-0.9-0.5-1.9-0.5-2.7c0-0.9,0.1-1.8,0.4-2.5c0.5-1.3,1.5-2.1,2.8-2.1
		c1.5,0,2.6,1.2,3,2.9c0.2,0.7,0.2,1.5,0.2,2.3s-0.2,1.7-0.5,2.5c-0.2,0.6-0.5,1.2-0.8,1.7c0.7,0.4,1.5,0.7,2.5,0.9
		c0.7,0.1,1.1,0.7,1,1.3c0,0.2-0.1,0.4-0.2,0.5l-8.7,12.4v26.2c0,0.7-0.5,1.2-1.2,1.2s-1.2-0.5-1.2-1.2v-26.5l0,0
		c0-0.2,0.1-0.5,0.2-0.7l8-11.3c-0.7-0.3-1.4-0.6-2-1c-1.1,0.9-2.6,1.5-4.6,1.5c-1.8,0-3.2-0.5-4.3-1.2c-1.1,0.8-2.5,1.2-4.3,1.2
		c-1.9,0-3.4-0.6-4.6-1.5c-0.6,0.4-1.2,0.7-2,1l7.9,11.2c0.2,0.2,0.3,0.5,0.3,0.7v26.6H1606.9z M1600.8,467.6
		c0.3-0.4,0.5-0.8,0.6-1.2c0.2-0.7,0.4-1.3,0.4-2c0-0.6-0.1-1.1-0.3-1.5c-0.2-0.4-0.4-0.6-0.6-0.6c-0.3,0-0.5,0.5-0.7,1.1
		c-0.1,0.5-0.2,1-0.1,1.6c0,0.6,0.2,1.2,0.4,1.8C1600.6,467.1,1600.7,467.4,1600.8,467.6 M1609.5,467.9c0.2-0.3,0.4-0.7,0.5-1
		c0.2-0.6,0.3-1.2,0.4-1.8c0-0.6,0-1.1-0.1-1.6c-0.2-0.7-0.4-1.1-0.7-1.1c-0.3,0-0.5,0.5-0.7,1.1c-0.1,0.5-0.2,1-0.1,1.6
		c0,0.6,0.2,1.2,0.4,1.8C1609.2,467.2,1609.3,467.6,1609.5,467.9 M1618.2,467.6c0.1-0.2,0.2-0.5,0.3-0.8c0.2-0.6,0.3-1.2,0.4-1.8
		c0-0.6,0-1.1-0.1-1.6c-0.2-0.7-0.4-1.1-0.7-1.1c-0.2,0-0.4,0.2-0.6,0.6c-0.2,0.4-0.3,0.9-0.3,1.5s0.1,1.3,0.4,2
		C1617.7,466.8,1617.9,467.2,1618.2,467.6"/>
	<path class="st9" d="M1590.7,509.2h37.7l-1.9,17.6c-0.3,3.2-0.5,4.7-4.7,4.7h-24.6c-4.2,0-4.3-1.5-4.7-4.7L1590.7,509.2z"/>
	<path class="st0" d="M1629.7,409.1c0.3-0.9,1.3-1.3,2.1-1c0.9,0.3,1.3,1.3,1,2.1l-7.3,20c-0.3,0.9-1.3,1.3-2.1,1
		c-0.9-0.3-1.3-1.3-1-2.1L1629.7,409.1z"/>
	<path class="st0" d="M1649.2,419.7c0.6-0.7,1.6-0.8,2.3-0.2c0.7,0.6,0.8,1.6,0.2,2.3l-13.7,16.3c-0.6,0.7-1.6,0.8-2.3,0.2
		c-0.7-0.6-0.8-1.6-0.2-2.3L1649.2,419.7z"/>
	<path class="st0" d="M1663.8,436.3c0.8-0.5,1.8-0.2,2.3,0.6s0.2,1.8-0.6,2.3l-18.4,10.6c-0.8,0.5-1.8,0.2-2.3-0.6s-0.2-1.8,0.6-2.3
		L1663.8,436.3z"/>
	<path class="st0" d="M1671.9,456.8c0.9-0.2,1.8,0.4,1.9,1.3c0.2,0.9-0.4,1.8-1.3,1.9l-21,3.7c-0.9,0.2-1.8-0.4-1.9-1.3
		c-0.2-0.9,0.4-1.8,1.3-1.9L1671.9,456.8z"/>
	<path class="st0" d="M1607.9,405.9c0-0.9,0.7-1.7,1.7-1.7c0.9,0,1.7,0.7,1.7,1.7v21.3c0,0.9-0.7,1.7-1.7,1.7
		c-0.9,0-1.7-0.7-1.7-1.7V405.9z"/>
	<path class="st0" d="M1586.2,410.3c-0.3-0.9,0.1-1.8,1-2.1s1.8,0.1,2.1,1l7.3,20c0.3,0.9-0.1,1.8-1,2.1s-1.8-0.1-2.1-1
		L1586.2,410.3z"/>
	<path class="st0" d="M1567.3,421.8c-0.6-0.7-0.5-1.7,0.2-2.3s1.7-0.5,2.3,0.2l13.7,16.3c0.6,0.7,0.5,1.7-0.2,2.3s-1.7,0.5-2.3-0.2
		L1567.3,421.8z"/>
	<path class="st0" d="M1553.5,439.1c-0.8-0.5-1.1-1.5-0.6-2.3s1.5-1.1,2.3-0.6l18.4,10.6c0.8,0.5,1.1,1.5,0.6,2.3s-1.5,1.1-2.3,0.6
		L1553.5,439.1z"/>
	<path class="st0" d="M1546.5,460.1c-0.9-0.2-1.5-1-1.3-1.9s1-1.5,1.9-1.3l21,3.7c0.9,0.2,1.5,1,1.3,1.9s-1,1.5-1.9,1.3
		L1546.5,460.1z"/>
</g>
<g>
	<polygon class="st0" points="1547.6,574.7 1633.1,574.7 1647.5,574.7 1647.5,716 1547.6,716 	"/>
	<rect x="1573.3" y="589.8" class="st10" width="48.5" height="2.4"/>
	<rect x="1556.7" y="595.7" class="st10" width="81.6" height="2.4"/>
	<rect x="1556.7" y="599.8" class="st10" width="81.6" height="2.4"/>
	<rect x="1556.7" y="604" class="st10" width="81.6" height="2.4"/>
	<rect x="1556.7" y="608.1" class="st10" width="38.2" height="2.4"/>
	<rect x="1562.6" y="664.8" class="st10" width="75.7" height="1"/>
	<rect x="1562.1" y="617.3" class="st10" width="1" height="48.1"/>
	<rect x="1576.5" y="617.3" class="st10" width="1" height="48.1"/>
	<rect x="1591" y="617.3" class="st10" width="1" height="48.1"/>
	<rect x="1605.4" y="617.3" class="st10" width="1" height="48.1"/>
	
		<rect x="1596.6" y="640.9" transform="matrix(1.213242e-02 -0.9999 0.9999 1.213242e-02 959.6461 2254.0891)" class="st10" width="48.1" height="1"/>
	<rect x="1634.3" y="617.3" class="st10" width="1" height="48.1"/>
	<rect x="1562.6" y="653.5" class="st10" width="75.7" height="1"/>
	<polygon class="st10" points="1562.6,642.3 1638.3,642.8 1638.3,643.8 1562.6,643.3 	"/>
	<rect x="1562.6" y="631" class="st10" width="75.7" height="1"/>
	<rect x="1562.6" y="619.7" class="st10" width="75.7" height="1"/>
	<polygon class="st15" points="1577.7,631.2 1561.5,665 1562.9,665.7 1578.5,633.1 1590.8,654.4 1591.3,655.2 1592,654.7 
		1605.9,643.7 1619.9,654.7 1620.7,655.3 1621.1,654.4 1632.3,627.2 1635.3,628.5 1634.4,620.2 1627.9,625.4 1630.9,626.6 
		1620,652.8 1606.4,642.2 1605.9,641.8 1605.5,642.2 1591.7,652.9 1579.1,631.1 1578.3,629.9 	"/>
	<rect x="1560.4" y="666.9" class="st10" width="4.4" height="2.2"/>
	<rect x="1574.9" y="666.9" class="st10" width="4.4" height="2.2"/>
	<rect x="1589.3" y="666.9" class="st10" width="4.4" height="2.2"/>
	<rect x="1603.7" y="666.9" class="st10" width="4.4" height="2.2"/>
	<rect x="1618.2" y="666.9" class="st10" width="4.4" height="2.2"/>
	<rect x="1632.6" y="666.9" class="st10" width="4.4" height="2.2"/>
	<rect x="1556.7" y="652.9" class="st10" width="4.4" height="2.2"/>
	<rect x="1556.7" y="641.7" class="st10" width="4.4" height="2.2"/>
	<rect x="1556.7" y="630.4" class="st10" width="4.4" height="2.2"/>
	<rect x="1556.7" y="620.4" class="st10" width="4.4" height="2.2"/>
	<rect x="1558.4" y="707.4" class="st10" width="41.1" height="4.7"/>
	<rect x="1558.4" y="680.6" class="st12" width="7.3" height="26.8"/>
	<rect x="1566.8" y="690.7" class="st11" width="7.3" height="16.7"/>
	<rect x="1575.3" y="696.3" class="st15" width="7.3" height="11"/>
	<rect x="1583.7" y="691.2" class="st16" width="7.3" height="16.2"/>
	<rect x="1592.2" y="695.8" class="st17" width="7.3" height="11.6"/>
	<path class="st17" d="M1622,679.3c9,0,16.4,7.3,16.4,16.4c0,9-7.3,16.4-16.4,16.4c-9,0-16.4-7.3-16.4-16.4S1612.9,679.3,1622,679.3
		"/>
	<path class="st16" d="M1612.9,709.3c-2.3-1.6-4.3-3.7-5.6-6.2l14.6-7.5L1612.9,709.3z"/>
	<path class="st15" d="M1607.4,703.1c-1.1-2.2-1.8-4.8-1.8-7.5c0-5.2,2.5-9.9,6.3-12.9l10.1,12.9L1607.4,703.1z"/>
	<path class="st11" d="M1611.9,682.8c2.8-2.2,6.3-3.5,10.1-3.5v16.4L1611.9,682.8z"/>
	<path class="st12" d="M1622,679.3v16.4l11.7-11.5C1630.6,681.2,1626.5,679.3,1622,679.3"/>
	<path class="st12" d="M1623.6,638.3l39.2-9.8c2.2-0.6,4.5,0.8,5,3l12.4,49.7c0.6,2.2-0.8,4.5-3,5L1638,696c-2.2,0.6-4.5-0.8-5-3
		l-12.4-49.7C1620.1,641.2,1621.4,638.9,1623.6,638.3"/>
	<path class="st18" d="M1625.3,641.3l37.5-9.4c1.1-0.3,2.3,0.4,2.5,1.5l1.4,5.7c0.3,1.1-0.4,2.3-1.5,2.5l-37.5,9.4
		c-1.1,0.3-2.3-0.4-2.5-1.5l-1.4-5.7C1623.4,642.7,1624.1,641.6,1625.3,641.3"/>
	<path class="st17" d="M1627.9,652.7l5.3-1.3c1-0.3,2.1,0.4,2.3,1.4l1.4,5.5c0.3,1-0.4,2.1-1.4,2.3l-5.3,1.3c-1,0.3-2.1-0.4-2.3-1.4
		l-1.4-5.5C1626.3,654,1626.9,652.9,1627.9,652.7"/>
	<path class="st17" d="M1638.8,649.9l5.3-1.3c1-0.3,2.1,0.4,2.3,1.4l1.4,5.5c0.3,1-0.4,2.1-1.4,2.3l-5.3,1.3c-1,0.3-2.1-0.4-2.3-1.4
		l-1.4-5.5C1637.1,651.3,1637.7,650.2,1638.8,649.9"/>
	<path class="st17" d="M1649.6,647.2l5.3-1.3c1-0.3,2.1,0.4,2.3,1.4l1.4,5.5c0.3,1-0.4,2.1-1.4,2.3l-5.3,1.3c-1,0.3-2.1-0.4-2.3-1.4
		l-1.4-5.5C1648,648.5,1648.6,647.5,1649.6,647.2"/>
	<path class="st19" d="M1660.5,644.5l5.3-1.3c1-0.3,2.1,0.4,2.3,1.4l1.4,5.5c0.3,1-0.4,2.1-1.4,2.3l-5.3,1.3c-1,0.3-2.1-0.4-2.3-1.4
		l-1.4-5.5C1658.8,645.8,1659.5,644.8,1660.5,644.5"/>
	<path class="st17" d="M1630.6,663.2l5.3-1.3c1-0.3,2.1,0.4,2.3,1.4l1.4,5.5c0.3,1-0.4,2.1-1.4,2.3l-5.3,1.3c-1,0.3-2.1-0.4-2.3-1.4
		l-1.4-5.5C1628.9,664.5,1629.5,663.4,1630.6,663.2"/>
	<path class="st17" d="M1641.4,660.5l5.3-1.3c1-0.3,2.1,0.4,2.3,1.4l1.4,5.5c0.3,1-0.4,2.1-1.4,2.3l-5.3,1.3c-1,0.3-2.1-0.4-2.3-1.4
		l-1.4-5.5C1639.7,661.8,1640.4,660.7,1641.4,660.5"/>
	<path class="st17" d="M1652.3,657.8l5.3-1.3c1-0.3,2.1,0.4,2.3,1.4l1.4,5.5c0.3,1-0.4,2.1-1.4,2.3l-5.3,1.3c-1,0.3-2.1-0.4-2.3-1.4
		l-1.4-5.5C1650.6,659.1,1651.2,658,1652.3,657.8"/>
	<path class="st19" d="M1663.1,655l5.3-1.3c1-0.3,2.1,0.4,2.3,1.4l1.4,5.5c0.3,1-0.4,2.1-1.4,2.3l-5.3,1.3c-1,0.3-2.1-0.4-2.3-1.4
		l-1.4-5.5C1661.5,656.4,1662.1,655.3,1663.1,655"/>
	<path class="st17" d="M1633.2,673.7l5.3-1.3c1-0.3,2.1,0.4,2.3,1.4l1.4,5.5c0.3,1-0.4,2.1-1.4,2.4l-5.3,1.3c-1,0.3-2.1-0.4-2.3-1.4
		l-1.4-5.5C1631.5,675,1632.2,674,1633.2,673.7"/>
	<path class="st17" d="M1644,671l5.3-1.3c1-0.3,2.1,0.4,2.3,1.4l1.4,5.5c0.3,1-0.4,2.1-1.4,2.3l-5.3,1.3c-1,0.3-2.1-0.4-2.3-1.4
		l-1.4-5.5C1642.4,672.3,1643,671.3,1644,671"/>
	<path class="st17" d="M1654.9,668.3l5.3-1.3c1-0.3,2.1,0.4,2.3,1.4l1.4,5.5c0.3,1-0.4,2.1-1.4,2.4l-5.3,1.3c-1,0.3-2.1-0.4-2.3-1.4
		l-1.4-5.5C1653.2,669.6,1653.9,668.6,1654.9,668.3"/>
	<path class="st19" d="M1665.8,665.6l5.3-1.3c1-0.3,2.1,0.4,2.3,1.4l1.4,5.5c0.3,1-0.4,2.1-1.4,2.3l-5.3,1.3c-1,0.3-2.1-0.4-2.3-1.4
		l-1.4-5.5C1664.1,666.9,1664.7,665.8,1665.8,665.6"/>
	<path class="st17" d="M1635.8,684.2l5.3-1.3c1-0.3,2.1,0.4,2.3,1.4l1.4,5.5c0.3,1-0.4,2.1-1.4,2.3l-5.3,1.3c-1,0.3-2.1-0.4-2.3-1.4
		l-1.4-5.5C1634.1,685.6,1634.8,684.5,1635.8,684.2"/>
	<path class="st17" d="M1646.7,681.5l5.3-1.3c1-0.3,2.1,0.4,2.3,1.4l1.4,5.5c0.3,1-0.4,2.1-1.4,2.3l-5.3,1.3c-1,0.3-2.1-0.4-2.3-1.4
		l-1.4-5.5C1645,682.9,1645.6,681.8,1646.7,681.5"/>
	<path class="st19" d="M1657.5,678.8l5.3-1.3c1-0.3,2.1,0.4,2.3,1.4l1.4,5.5c0.3,1-0.4,2.1-1.4,2.4l-5.3,1.3c-1,0.3-2.1-0.4-2.3-1.4
		l-1.4-5.5C1655.9,680.1,1656.5,679.1,1657.5,678.8"/>
	<path class="st19" d="M1668.4,676.1l5.3-1.3c1-0.3,2.1,0.4,2.3,1.4l1.4,5.5c0.3,1-0.4,2.1-1.4,2.3l-5.3,1.3c-1,0.3-2.1-0.4-2.3-1.4
		l-1.4-5.5C1666.7,677.4,1667.4,676.4,1668.4,676.1"/>
	<path class="st0" d="M1661.7,639.5l0.7-0.2l0.3,0.2l0.2-0.3l1-0.2l-0.4-1.7l0.2-0.3l-0.3-0.2l-0.2-1l-0.4,1.2l-0.3,0.1l-0.1-0.6
		l0.5-1.4l-0.7,0.2l-0.3-0.2l-0.2,0.3l-1,0.2l0.4,1.7l-0.2,0.3l0.3,0.2l0.2,0.9l0.4-1.2l0.3-0.1l0.1,0.6L1661.7,639.5z
		 M1662.6,639.9l-1,0.3l-0.4-0.2l0,0l-0.3-0.2l-0.4-1.7l0.2-0.3l-0.3-0.2l-0.4-1.7l0.2-0.4l0,0l0.2-0.3l1-0.3l0.3,0.2l0.2-0.3l1-0.3
		l0.4,0.2l0,0l0.3,0.2l0.4,1.8l-0.2,0.3l0.3,0.2l0.4,1.7l-0.2,0.4l0,0l-0.2,0.3l-1,0.3l-0.3-0.2L1662.6,639.9z"/>
	<path class="st20" d="M1632.8,655c-0.3,0.6-0.5,1.1-0.5,1.6s0,1,0.1,1.6l0.1,0.4l-0.8,0.2l-0.1-0.4c-0.1-0.6-0.1-1.1,0-1.7
		c0.1-0.5,0.2-1,0.5-1.5l-2,0.5l-0.2-0.6l2.8-0.7L1632.8,655z"/>
	<path class="st20" d="M1643.7,652.7c0,0.2,0,0.4,0,0.6c-0.1,0.2-0.2,0.3-0.3,0.5c0.2,0,0.4,0.1,0.6,0.3c0.2,0.1,0.3,0.3,0.3,0.5
		c0.1,0.4,0,0.7-0.2,0.9c-0.2,0.3-0.5,0.4-0.9,0.5s-0.7,0.1-1,0s-0.5-0.4-0.6-0.7c-0.1-0.2,0-0.4,0-0.6c0.1-0.2,0.2-0.4,0.4-0.5
		c-0.2,0-0.4-0.1-0.5-0.2c-0.1-0.1-0.2-0.3-0.3-0.5c-0.1-0.3,0-0.6,0.1-0.9c0.2-0.2,0.5-0.4,0.8-0.5c0.4-0.1,0.7-0.1,1,0.1
		C1643.4,652.1,1643.6,652.3,1643.7,652.7 M1643.4,654.6c0-0.2-0.1-0.3-0.3-0.4c-0.1-0.1-0.3-0.1-0.4-0.1c-0.2,0-0.3,0.1-0.4,0.3
		c-0.1,0.1-0.1,0.3,0,0.5c0,0.2,0.1,0.3,0.3,0.4c0.1,0.1,0.3,0.1,0.4,0.1c0.2,0,0.3-0.1,0.4-0.3S1643.5,654.7,1643.4,654.6
		 M1642.9,652.9c0-0.2-0.1-0.3-0.2-0.3c-0.1-0.1-0.2-0.1-0.4-0.1c-0.1,0-0.2,0.1-0.3,0.2c-0.1,0.1-0.1,0.3,0,0.4
		c0,0.2,0.1,0.3,0.2,0.4c0.1,0.1,0.2,0.1,0.4,0.1c0.1,0,0.2-0.1,0.3-0.2C1643,653.2,1643,653,1642.9,652.9"/>
	<path class="st20" d="M1653.7,652.6c0.2-0.1,0.4-0.2,0.4-0.4c0.1-0.2,0.1-0.4,0-0.7v-0.2c-0.1,0.1-0.1,0.2-0.2,0.3
		s-0.2,0.1-0.4,0.2c-0.4,0.1-0.7,0-0.9-0.1c-0.3-0.2-0.5-0.5-0.6-0.9s-0.1-0.7,0.1-1.1c0.2-0.3,0.5-0.5,0.8-0.6
		c0.4-0.1,0.8,0,1.1,0.2c0.3,0.2,0.5,0.6,0.7,1.1l0.2,0.9c0.1,0.5,0.1,0.9-0.1,1.2s-0.5,0.6-1,0.7c-0.1,0-0.3,0.1-0.4,0.1
		c-0.2,0-0.3,0-0.4,0v-0.6c0.1,0,0.3,0,0.4,0C1653.4,652.7,1653.6,652.7,1653.7,652.6 M1653.5,651.3c0.1,0,0.2-0.1,0.3-0.2
		c0.1-0.1,0.1-0.2,0.2-0.3l-0.1-0.4c-0.1-0.3-0.2-0.5-0.3-0.6c-0.1-0.1-0.3-0.2-0.5-0.1c-0.2,0-0.3,0.1-0.3,0.3
		c-0.1,0.2-0.1,0.4,0,0.6c0.1,0.2,0.1,0.4,0.3,0.5C1653.2,651.3,1653.4,651.3,1653.5,651.3"/>
	<path class="st20" d="M1662.4,647.7c-0.1-0.2,0-0.4,0.1-0.6c0.1-0.2,0.3-0.3,0.6-0.4c0.3-0.1,0.5,0,0.7,0.1s0.3,0.3,0.4,0.5
		l0.1,0.2c0.1,0.2,0,0.4-0.1,0.6c-0.1,0.2-0.3,0.3-0.6,0.4c-0.3,0.1-0.5,0-0.7-0.1s-0.3-0.3-0.4-0.5L1662.4,647.7z M1662.9,647.8
		c0,0.1,0.1,0.2,0.2,0.2c0.1,0.1,0.2,0.1,0.3,0c0.1,0,0.2-0.1,0.2-0.2c0-0.1,0-0.2,0-0.3l-0.1-0.2c0-0.1-0.1-0.2-0.2-0.2
		c-0.1-0.1-0.2-0.1-0.3,0c-0.1,0-0.2,0.1-0.2,0.2c0,0.1,0,0.2,0,0.3L1662.9,647.8z M1664.8,649.4c-0.1-0.2,0-0.4,0.1-0.6
		c0.1-0.2,0.3-0.3,0.6-0.4c0.3-0.1,0.5,0,0.7,0.1s0.3,0.3,0.4,0.5l0.1,0.2c0.1,0.2,0,0.4-0.1,0.6c-0.1,0.2-0.3,0.3-0.6,0.4
		c-0.3,0.1-0.5,0-0.7-0.1s-0.3-0.3-0.4-0.5L1664.8,649.4z M1665.3,649.5c0,0.1,0.1,0.2,0.2,0.2c0.1,0.1,0.2,0.1,0.3,0
		c0.1,0,0.2-0.1,0.2-0.2c0-0.1,0-0.2,0-0.3l-0.1-0.2c0-0.1-0.1-0.2-0.2-0.2c-0.1-0.1-0.2-0.1-0.3,0c-0.1,0-0.2,0.1-0.2,0.2
		c0,0.1,0,0.2,0,0.3L1665.3,649.5z M1664.1,650.3l1.1-3.5l-0.4-0.1l-1.1,3.5L1664.1,650.3z"/>
	<path class="st20" d="M1635.5,667.4l0.4-0.1l0.2,0.6l-0.4,0.1l0.2,0.8l-0.8,0.2l-0.2-0.8l-1.6,0.4l-0.2-0.5l1-3l0.8-0.2
		L1635.5,667.4z M1633.8,667.8l0.9-0.2l-0.3-1.4l0,0v0.1L1633.8,667.8z"/>
	<path class="st20" d="M1644.2,664.9l-0.3-2.2l2.2-0.5l0.2,0.6l-1.5,0.4l0.1,0.9c0.1-0.1,0.1-0.1,0.2-0.2c0.1-0.1,0.2-0.1,0.3-0.1
		c0.4-0.1,0.7-0.1,1,0.1c0.3,0.2,0.4,0.5,0.6,0.9c0.1,0.4,0.1,0.7-0.1,1s-0.5,0.5-0.9,0.6s-0.7,0.1-1-0.1c-0.3-0.1-0.5-0.4-0.6-0.7
		l0,0l0.7-0.2c0,0.2,0.1,0.3,0.2,0.4c0.1,0.1,0.3,0.1,0.4,0.1c0.2,0,0.3-0.1,0.4-0.3c0.1-0.1,0.1-0.3,0-0.5s-0.1-0.4-0.3-0.5
		c-0.1-0.1-0.3-0.1-0.5-0.1s-0.3,0.1-0.3,0.2c-0.1,0.1-0.1,0.2-0.1,0.3L1644.2,664.9z"/>
	<path class="st20" d="M1655.9,659.6c0.1,0,0.3-0.1,0.4-0.1s0.3,0,0.4,0v0.6c-0.1,0-0.2,0-0.3,0c-0.1,0-0.2,0-0.3,0
		c-0.2,0.1-0.4,0.2-0.5,0.4s-0.1,0.5,0,0.8l0,0c0.1-0.1,0.2-0.2,0.3-0.3c0.1-0.1,0.3-0.1,0.4-0.2c0.3-0.1,0.7,0,0.9,0.2
		c0.3,0.2,0.4,0.5,0.5,0.9s0.1,0.8-0.1,1.1s-0.5,0.5-0.9,0.6s-0.8,0-1.1-0.2c-0.3-0.2-0.6-0.6-0.7-1.1l-0.2-0.8
		c-0.1-0.5-0.1-1,0.1-1.3C1655.1,660,1655.5,659.7,1655.9,659.6 M1656.2,661.6c-0.1,0-0.3,0.1-0.4,0.2c-0.1,0.1-0.2,0.2-0.2,0.3
		l0.1,0.3c0.1,0.3,0.2,0.5,0.3,0.7c0.2,0.1,0.3,0.2,0.5,0.1c0.2,0,0.3-0.1,0.3-0.3c0.1-0.2,0.1-0.4,0-0.6c-0.1-0.2-0.1-0.4-0.3-0.5
		C1656.5,661.6,1656.4,661.6,1656.2,661.6"/>
	<polygon class="st20" points="1667,658.9 1667.1,658.9 1667.3,657.9 1668.2,657.7 1667.6,659.3 1668.9,660.6 1668,660.8 
		1667.3,660 1667.1,661 1666.2,661.3 1666.7,659.6 1665.5,658.4 1666.4,658.1 	"/>
	<polygon class="st20" points="1638,679.5 1637.2,679.7 1636.4,676.5 1635.6,676.7 1635.4,676.1 1637,675.6 	"/>
	<path class="st20" d="M1649.8,676.5l-2.7,0.7l-0.1-0.5l0.9-1.7c0.1-0.3,0.2-0.5,0.3-0.6c0-0.2,0-0.3,0-0.4c0-0.2-0.1-0.3-0.2-0.4
		c-0.1-0.1-0.3-0.1-0.4-0.1c-0.2,0-0.3,0.1-0.4,0.3c-0.1,0.1-0.1,0.3,0,0.5l-0.8,0.2l0,0c-0.1-0.3-0.1-0.7,0.1-1s0.5-0.5,0.9-0.6
		s0.7-0.1,1,0.1c0.3,0.2,0.5,0.4,0.6,0.8c0.1,0.2,0,0.5,0,0.7c-0.1,0.2-0.2,0.5-0.4,0.9l-0.5,0.9l0,0l1.6-0.4L1649.8,676.5z"/>
	<path class="st20" d="M1658.2,672l0.4-0.1c0.2,0,0.3-0.1,0.4-0.3c0.1-0.1,0.1-0.3,0-0.4c0-0.2-0.1-0.3-0.2-0.3
		c-0.1-0.1-0.3-0.1-0.4,0c-0.1,0-0.3,0.1-0.3,0.2c-0.1,0.1-0.1,0.2-0.1,0.4l-0.8,0.2l0,0c-0.1-0.3,0-0.6,0.2-0.8
		c0.2-0.3,0.5-0.4,0.8-0.5c0.4-0.1,0.7-0.1,1,0s0.5,0.4,0.6,0.7c0,0.2,0,0.3,0,0.5c-0.1,0.2-0.2,0.3-0.4,0.5c0.2,0,0.4,0.1,0.6,0.2
		c0.2,0.1,0.3,0.3,0.3,0.5c0.1,0.4,0,0.7-0.2,0.9c-0.2,0.3-0.5,0.5-0.9,0.6s-0.7,0.1-1-0.1c-0.3-0.1-0.5-0.4-0.6-0.7l0,0l0.8-0.2
		c0,0.1,0.1,0.3,0.3,0.3c0.1,0.1,0.3,0.1,0.4,0c0.2,0,0.3-0.1,0.4-0.3c0.1-0.1,0.1-0.3,0.1-0.4c-0.1-0.2-0.1-0.3-0.3-0.4
		c-0.1-0.1-0.3-0.1-0.5,0l-0.4,0.1L1658.2,672z"/>
	
		<rect x="1669" y="669.5" transform="matrix(0.9701 -0.2427 0.2427 0.9701 -112.6474 425.2844)" class="st20" width="1.6" height="0.6"/>
	<path class="st20" d="M1641.1,688.3c0.1,0.5,0.1,0.9-0.1,1.3c-0.2,0.3-0.5,0.5-0.9,0.6s-0.8,0-1.1-0.2c-0.3-0.2-0.5-0.6-0.6-1.1
		l-0.2-0.9c-0.1-0.5-0.1-0.9,0.1-1.3c0.2-0.3,0.5-0.5,0.9-0.6s0.8,0,1.1,0.2c0.3,0.2,0.5,0.6,0.7,1.1L1641.1,688.3z M1640.1,687.6
		c-0.1-0.3-0.2-0.5-0.3-0.6c-0.1-0.1-0.3-0.2-0.5-0.1c-0.2,0-0.3,0.1-0.3,0.3c-0.1,0.2,0,0.4,0,0.7l0.3,1c0.1,0.3,0.2,0.5,0.3,0.7
		c0.1,0.1,0.3,0.2,0.5,0.1c0.2,0,0.3-0.1,0.3-0.3c0.1-0.2,0-0.4,0-0.7L1640.1,687.6z"/>
	<path class="st20" d="M1649.9,685.4c0-0.2,0-0.3,0.1-0.5c0.1-0.1,0.2-0.2,0.4-0.3c0.2-0.1,0.4,0,0.5,0.1s0.2,0.2,0.3,0.4l0.1,0.2
		c0,0.2,0,0.3-0.1,0.5c-0.1,0.1-0.2,0.2-0.4,0.3c-0.2,0-0.4,0-0.5-0.1s-0.2-0.2-0.3-0.4L1649.9,685.4z"/>
	<polygon class="st20" points="1661.7,682.4 1662.7,682.2 1662.9,682.9 1661.9,683.1 1662.2,684.2 1661.5,684.4 1661.2,683.3 
		1660.2,683.5 1660,682.9 1661,682.6 1660.7,681.6 1661.5,681.4 	"/>
	<path class="st20" d="M1673.5,679.6l-2.4,0.6l-0.2-0.6l2.4-0.6L1673.5,679.6z M1673.8,680.8l-0.2-0.6l-2.4,0.6l0.2,0.6
		L1673.8,680.8z"/>
</g>
<g>
	<text transform="matrix(1 0 0 1 1547.5601 753.1796)" class="st6 st7 st8">每週外匯 實盤解析</text>
</g>
<g>
	<text transform="matrix(1 0 0 1 1488.3721 369.4022)" class="st6 st7 st8">checkmoney168@gmail.com</text>
</g>
<g>
	
		<rect x="909.1" y="322.6" transform="matrix(0.7844 -0.6203 0.6203 0.7844 -0.3496 649.0763)" class="st0" width="48.6" height="4.9"/>
	
		<rect x="969" y="300.7" transform="matrix(0.6203 -0.7844 0.7844 0.6203 113.9682 885.3622)" class="st0" width="4.9" height="48.6"/>
	<rect x="950" y="261.4" class="st0" width="4.9" height="48.6"/>
	<path class="st11" d="M959.5,268.1c6.5,2.2,11.4,7.3,13,13.5h-40.3c1.6-6.3,6.5-11.3,13-13.5c-3-2.7-5-7.1-5-12.1
		c0-8.2,5.4-14.9,12.1-14.9c6.7,0,12.1,6.7,12.1,14.9C964.5,261,962.6,265.4,959.5,268.1"/>
	<path class="st9" d="M920.9,338.8c6.5,2.2,11.4,7.3,13,13.5h-40.3c1.6-6.3,6.5-11.3,13-13.5c-3-2.7-5-7.1-5-12.1
		c0-8.2,5.4-14.9,12.1-14.9c6.7,0,12.1,6.7,12.1,14.9C925.9,331.7,923.9,336.1,920.9,338.8"/>
	<path class="st13" d="M998.2,338.8c6.5,2.2,11.4,7.3,13,13.5h-40.3c1.6-6.3,6.5-11.3,13-13.5c-3-2.7-5-7.1-5-12.1
		c0-8.2,5.4-14.9,12.1-14.9c6.7,0,12.1,6.7,12.1,14.9C1003.2,331.7,1001.2,336.1,998.2,338.8"/>
	<path class="st0" d="M952.4,297.5c6.9,0,12.4,5.6,12.4,12.4c0,6.9-5.6,12.4-12.4,12.4c-6.9,0-12.4-5.6-12.4-12.4
		S945.5,297.5,952.4,297.5"/>
</g>
<g>
	<rect x="924.3" y="471.7" class="st21" width="128.1" height="205.2"/>
	<g>
		<g>
			<g>
				<rect x="937.9" y="540.7" class="st22" width="5.1" height="10.6"/>
				<rect x="939.7" y="535.5" class="st22" width="1.5" height="21.1"/>
			</g>
			<g>
				<rect x="951.6" y="530.9" class="st23" width="5.1" height="10.6"/>
				<rect x="953.4" y="525.6" class="st23" width="1.5" height="21.1"/>
			</g>
			<g>
				<rect x="965.3" y="522.1" class="st22" width="5.1" height="15.2"/>
				<rect x="967.1" y="519.2" class="st22" width="1.5" height="21.1"/>
			</g>
			<g>
				<rect x="979" y="513.9" class="st23" width="5.1" height="10.6"/>
				<rect x="980.8" y="508.7" class="st23" width="1.5" height="21.1"/>
			</g>
			<g>
				<rect x="992.7" y="498.6" class="st23" width="5.1" height="16.4"/>
				<rect x="994.5" y="495.8" class="st23" width="1.5" height="21.1"/>
			</g>
			<g>
				<rect x="1006.4" y="493.1" class="st22" width="5.1" height="10.6"/>
				<rect x="1008.1" y="487.9" class="st22" width="1.5" height="21.1"/>
			</g>
			<g>
				<rect x="1020" y="499.3" class="st22" width="5.1" height="10.6"/>
				<rect x="1021.8" y="494" class="st22" width="1.5" height="21.1"/>
			</g>
			<g>
				<rect x="1033.7" y="487.1" class="st24" width="5.1" height="16"/>
				<rect x="1035.5" y="484.5" class="st24" width="1.5" height="21.1"/>
			</g>
			<g>
				<rect x="1047.4" y="484.9" class="st25" width="5.1" height="10.6"/>
				<rect x="1049.2" y="479.7" class="st25" width="1.5" height="21.1"/>
			</g>
			<g>
				<rect x="1058" y="490.9" class="st24" width="5.1" height="16.4"/>
				<rect x="1059.8" y="488.1" class="st24" width="1.5" height="21.1"/>
			</g>
			<g>
				<rect x="1071.7" y="485.4" class="st25" width="5.1" height="10.6"/>
				<rect x="1073.5" y="480.2" class="st25" width="1.5" height="21.1"/>
			</g>
			<g>
				<rect x="1085.3" y="491.6" class="st25" width="5.1" height="10.6"/>
				<rect x="1087.1" y="486.3" class="st25" width="1.5" height="21.1"/>
			</g>
		</g>
		<g>
			<rect x="968.1" y="494.2" class="st26" width="1.6" height="14.7"/>
			<polygon class="st26" points="972.3,497.7 965.4,497.7 969,488.5 			"/>
		</g>
		<g>
			<rect x="1072.6" y="518.8" class="st27" width="1.6" height="14.7"/>
			<polygon class="st27" points="1069.9,529.9 1076.8,529.9 1073.2,539.1 			"/>
		</g>
	</g>
	<rect x="1021.2" y="446.1" class="st28" width="160" height="256.3"/>
	<rect x="1031.9" y="475.4" class="st26" width="140.5" height="40.8"/>
	<rect x="1031.9" y="483.6" class="st23" width="9.6" height="32.5"/>
	<rect x="1045" y="493.8" class="st23" width="9.6" height="22.3"/>
	<path class="st29" d="M971.1,663.8h-16.3c-9.5,0-17.2-7.7-17.2-17.2v-16.4c0-9.5,7.7-17.2,17.2-17.2h16.4c9.5,0,17.2,7.7,17.2,17.2
		v16.4C988.4,656.1,980.6,663.8,971.1,663.8z"/>
	<g>
		<path class="st28" d="M958.4,651.9l-14.3-14.3c-0.8-0.8-0.8-2,0-2.8s2-0.8,2.8,0l11.4,11.4l16.9-16.9c0.8-0.8,2-0.8,2.8,0
			s0.8,2,0,2.8L958.4,651.9z"/>
	</g>
	<polygon class="st26" points="937.5,589.3 958.9,568 968.8,577.9 991.3,555.4 1002.3,566.4 1007.2,561.5 1013.4,567.6 
		1036.4,544.6 1036.4,589.3 	"/>
	<g>
		<path class="st30" d="M904.7,617.9c0,0,2.6-0.3,3.9-0.2c1.2,0.1,6.7,3.2,8.6,3.1c1.9-0.1,14.2-4.1,14.8-4.5s-0.2-1.2-0.2-1.2
			l-27.4-2.7L904.7,617.9z"/>
		<g>
			<path class="st30" d="M922.9,612.7c0,0,3.1,1.3,4.4,2.7c0.3,0.3,0.5,0.7,0.4,1.1c-0.2,0.4-1,0.7-2.4,0.2s-3.3-0.5-3.3-0.5
				S920.7,615.3,922.9,612.7z"/>
		</g>
		<g>
			<path class="st31" d="M882.7,573.7l-2.8,28.9c0,0-1.2,3.6,6.9,4.9c8.3,1.3,21.1,4.1,21.1,4.1s-0.2,9.6-1.3,9.7
				c-3.1,0.2-26.6-3.8-35.9-5.8c-7.4-1.6-2.7-40.9-2.7-40.9L882.7,573.7z"/>
		</g>
		<path class="st30" d="M905.1,608.2c0,0,2.6,0.7,3.8,0.8s7.1-2.1,9-1.8c1.8,0.4,13.5,6.2,14,6.6c0.5,0.4-0.3,1.2-0.3,1.2l-27.6-1.4
			L905.1,608.2z"/>
		<g>
			<g>
				<g>
					<path class="st32" d="M874.7,760.9c0,0,5.7,3.5,8.3,4.8s12.7,1.8,13.7,2.7c1,1,0.6,4-1.1,4.3c-1.7,0.3-14,1.3-18.1,0.2
						c-4.1-1-11.8,0.5-13.5-0.1s-0.5-9.7,0.2-11.8C864.9,759,874.7,760.9,874.7,760.9z"/>
				</g>
			</g>
		</g>
		<g>
			<g>
				<g>
					<path class="st33" d="M875.2,757.1l-0.5,3.7c0,0-7.7,1.3-10,0.1l0.6-3.9L875.2,757.1z"/>
				</g>
			</g>
		</g>
		<path class="st32" d="M890.4,626.2c0.2,2.6,0.4,8.2,0.5,14.2c0,1.3,0.1,2.6,0.1,4c0.1,8,0.2,15.4,0.2,15.4c-0.4,10-2,31.8-5,36.6
			c-4,6.6-8.7,61.4-8.7,61.4l-14.8,1.6c0,0-0.9-36.6,1.3-46.2c2.5-10.7,7.2-25.3,4.5-35c-1.7-6.1-5.2-25.7-5.2-25.7
			s-3.8-22.1,0.1-39C864.4,609.2,890.4,626.2,890.4,626.2z"/>
		<g>
			<g>
				<g>
					<path class="st32" d="M900.2,760.9c0,0,5.7,3.5,8.3,4.8s12.7,1.8,13.7,2.7c1,1,0.6,4-1.1,4.3c-1.7,0.3-14,1.3-18.1,0.2
						c-4.1-1-11.8,0.5-13.5-0.1s-0.5-9.7,0.2-11.8C890.4,759,900.2,760.9,900.2,760.9z"/>
				</g>
			</g>
		</g>
		<g>
			<g>
				<g>
					<path class="st33" d="M900.7,757.1l-0.5,3.7c0,0-7.7,1.3-10,0.1l0.6-3.9L900.7,757.1z"/>
				</g>
			</g>
		</g>
		<path class="st32" d="M903.9,758.8h-15.2c0,0-5.1-29.4-5.5-42.3l0,0c0-1.4,0-2.6,0-3.6c0.2-2.7,0.5-5.8,0.8-8.9c0,0,0,0,0-0.1
			c0.9-9.3,1.6-19.4-1.5-26.3c-2.6-5.8-9-24.7-9-24.7s-7-21.3-5.6-38.6c0.4-4.3,27.3,6.6,27.3,6.6c0.6,2.5,2.4,10.5,3,16.4
			c3.7,33.7,2.3,55.6,2.3,55.6C898.6,700.3,903.9,758.8,903.9,758.8z"/>
		<g>
			<path class="st34" d="M893,549.1c0,0,5.3,12.5,6.4,19.2c1.1,6.7-3.4,25.1-3.6,28.9c-0.6,11.8-0.9,24.8-0.9,24.8l-25.7,11.5
				c0,0-2.7-10.5-4.6-23.3c-1.8-12.8-0.5-23.9,0.7-31.2c3.6-23.1,18-34.3,18-34.3L893,549.1z"/>
		</g>
		<g>
			<path class="st30" d="M912.5,526.6c0,0,1.8,6.9-0.1,7.4c-1.5,0.5-0.1,7.1,0.1,8.2c0.1,1.1-2.9,1.1-3.6,1.6
				c-0.8,0.5-4.4,7.8-6.8,7.4c-2.4-0.3-11.9-6.6-14.1-10.2c-2.1-3.7-1.2-17.6,2.1-22.8C893.4,513.1,909.3,514.5,912.5,526.6z"/>
		</g>
		<g>
			<path class="st30" d="M898,543.6c-0.3,1.1-0.8,3.2-1.3,5c-0.2,0.8-0.4,1.6-0.5,2.4c-0.4,2-0.7,4-0.7,5.1
				c0.1,3.1-10.8-11.5-10.8-11.5s2.6-9.6,3.7-20.7C889.5,512.8,898,543.6,898,543.6z"/>
		</g>
		<g>
			<path class="st35" d="M912.8,528.1c0,0,5-5.7,0.1-12.1s-18.2-0.6-19.6-0.6c-1.3,0-8.5-1.3-8.1,12.2c0.3,12,0.9,11.5,0.9,11.5
				s3.7-5,5.3-5.7c2.4-1,6.8,0.5,6.8,0.5s-0.7-6.2,2.8-6.2C904.6,527.7,909.7,526,912.8,528.1z"/>
		</g>
		<g>
			<path class="st30" d="M895.5,529.8c-0.1-0.9-0.2-4.5-3.6-3.2c-3.4,1.3-0.3,8.8,0.2,9C892.6,535.8,896.3,537,895.5,529.8z"/>
		</g>
		<path class="st36" d="M896.5,626.2c0,0-1.2-5.6-1.4-6.4l-34.7,5.8l0.4,4.5C860.8,630.1,885.8,628.6,896.5,626.2z"/>
		<path class="st37" d="M860.3,598.5c0,0,1.9,24.1-10.4,50.1c-1.5,3.2,23,3,23,3L860.3,598.5z"/>
		<g>
			<path class="st37" d="M896.1,577c-0.5,2.7-0.8,5.4-1.2,8l0,0c-0.7,5.4-1.1,10.7-1.4,16c0,0.5-0.1,1.1-0.1,1.6
				c0,0.9-0.1,1.8-0.1,2.6c0,1.2-0.1,2.3-0.1,3.5c-0.7,23.9-9.5,42.7-9.5,42.7s-17.5,1.2-22.1-1.3c0,0-3.1-26.9-1.7-53.5
				c0.1-2.1,0.2-4.1,0.4-6.1l0,0c1.8-21.5,10.3-42.3,23.1-45.9C883.7,545,898.5,563,896.1,577z"/>
		</g>
		
			<rect x="927.8" y="593.6" transform="matrix(4.036811e-02 -0.9992 0.9992 4.036811e-02 276.3759 1520.7712)" class="st38" width="4.2" height="45.8"/>
		
			<rect x="935.6" y="595.1" transform="matrix(0.3379 -0.9412 0.9412 0.3379 72.5499 1297.6029)" class="st38" width="45.8" height="4.2"/>
		<path class="st39" d="M890.1,690.3c-1.3,8.3-6.9,25.8-7,26.2c0-1.4,0-2.6,0-3.6c0.2-2.7,0.5-5.8,0.8-8.9c0,0,0,0,0-0.1
			c0.3-2.7,2.2-7.7,3.5-11.1c1.3-3.4,2.6-17,2.6-17S891.5,681.9,890.1,690.3z"/>
		<path class="st40" d="M896.7,548.6c-0.2,0.8-0.4,1.6-0.5,2.4c-3.2-2.2-6.9-8.1-7.2-8.5C890.4,544.4,896.6,548.5,896.7,548.6z"/>
		<path class="st31" d="M893.4,599.7c0,0.5-0.1,1.1-0.1,1.6c0,0.9-0.1,1.7-0.1,2.6c-3.9-0.8-11.4-2.8-13.7-6.8
			c-3.1-5.4,4.6-18.1,4.7-18.4c-0.1,0.3-3.3,16,0,17.5C886.4,597.2,890.8,598.6,893.4,599.7z"/>
		<path class="st41" d="M896,559.8c0,0,2.7,13.4,0.3,29.3c-2,13.3-2.7,22.9-2.7,22.9l1,3.8l1.8-2.9c0,0,3.1-17.1,3.7-24.2
			c0.6-7.2,1.2-16.8-3-29L896,559.8z"/>
		<path class="st41" d="M895.8,559.8c0,0,0.3,0.4,0.9,0.6c0.5,0.2,1.4-0.6-0.8-4.7L895.8,559.8z"/>
		<g>
			<path class="st42" d="M885.1,543.1c0,0,6.8,8.6,11.2,11l-0.2,7.3l-12.8-16.5L885.1,543.1z"/>
		</g>
		<path class="st37" d="M870.4,566.7c0.5-3.3,4.4-17.3,12.3-15.2c7.9,2.1,5.7,11.6,4,18.8c-1.8,7.5-8.3,25.7-7.1,26.8
			c1.1,1.1,10.3,5.3,12.3,6s14.7,4.7,15.7,5.1c1,0.4-4.9,10.8-4.9,10.8s-31.7-10.8-37-14.3C860.1,601.2,870.4,566.7,870.4,566.7z"/>
	</g>
	<rect x="1031.9" y="522.2" class="st43" width="140.5" height="40.8"/>
	<path class="st26" d="M1031.9,563.7c-0.2,0-0.5-0.1-0.6-0.3c-0.3-0.3-0.2-0.9,0.1-1.1l22.9-17.9l6.1,4.9l6.3-6.7l3.9,3.7l19.2-13.2
		l10.6,9.4l14-9.3l6.6,2.8l18.2-10.7l12,10.6l20.7-14.5c0.4-0.3,0.9-0.2,1.1,0.2c0.3,0.4,0.2,0.9-0.2,1.1l-21.7,15.2l-12.1-10.7
		l-17.9,10.5l-6.5-2.8l-14.3,9.5l-10.6-9.4l-19.3,13.3l-3.7-3.5l-6.2,6.6l-6.3-5.1l-21.9,17.1
		C1032.3,563.7,1032.1,563.7,1031.9,563.7z"/>
	<path class="st22" d="M1031.9,563.7c-0.3,0-0.6-0.2-0.7-0.4c-0.2-0.4,0-0.9,0.3-1.1l21.1-10.8l8.8,3.6l5.6-3.6l3.2,1l18-10.8
		l9.3,6.6l39.1-11l10.7,4.6h25.1c0.4,0,0.8,0.4,0.8,0.8c0,0.4-0.4,0.8-0.8,0.8l-25.5-0.1l-10.4-4.4l-39.3,11.1l-9.1-6.4l-17.7,10.6
		l-3.2-1l-5.7,3.7l-8.9-3.7l-20.5,10.5C1032.2,563.7,1032.1,563.7,1031.9,563.7z"/>
	<rect x="1058.1" y="503.7" class="st23" width="9.6" height="12.4"/>
	<rect x="1071.2" y="489.8" class="st22" width="9.6" height="26.3"/>
	<rect x="1136.7" y="486.5" class="st22" width="9.6" height="29.7"/>
	<rect x="1084.3" y="495.7" class="st44" width="9.6" height="20.4"/>
	<rect x="1097.4" y="478.8" class="st22" width="9.6" height="37.3"/>
	<rect x="1110.5" y="505" class="st23" width="9.6" height="11.2"/>
	<rect x="1123.6" y="497.5" class="st23" width="9.6" height="18.6"/>
	<g>
		<g>
			<path class="st26" d="M1124.8,671l18.3-18.1l0.1-25.8c-6.7,0.2-12.9,2.8-17.7,7.6c-5,4.9-7.7,11.5-7.8,18.5
				C1117.8,659.8,1120.3,666.1,1124.8,671z"/>
			<path class="st44" d="M1145,627l-0.1,25.3h6.1l19.2,0.1c-0.2-6.7-2.8-12.9-7.6-17.7C1157.9,630,1151.7,627.3,1145,627z"/>
			<path class="st23" d="M1146.1,654.1l2.9,2.9l14.1,14.2c4.4-4.6,6.9-10.6,7.1-17L1146.1,654.1z"/>
			<path class="st22" d="M1144,679.4c6.6,0,12.9-2.5,17.8-7l-17.8-18l-18,17.8c4.8,4.6,11.1,7.1,17.8,7.2H1144z"/>
		</g>
		<rect x="1031.1" y="591.9" class="st45" width="10.3" height="19.7"/>
		<rect x="1045.3" y="598.1" class="st26" width="10.4" height="13.5"/>
		<rect x="1059.5" y="604" class="st23" width="10.3" height="7.5"/>
		<rect x="1073.6" y="595.6" class="st26" width="10.3" height="15.9"/>
		<rect x="1087.8" y="599.2" class="st26" width="10.3" height="12.3"/>
		<rect x="1102" y="589" class="st26" width="10.3" height="22.6"/>
		<g>
			<path class="st26" d="M1032.9,678.6l-1.5-1.1l13.5-18.1l22.7-5.6c4-5.8,10.3-14.9,11-16.2c0.2-0.8,2.1-1.4,26.1-7l0.4,1.8
				c-8.8,2-23,5.4-25,6.2c-0.7,1.2-3,4.8-11.2,16.6l-0.2,0.3l-22.7,5.6L1032.9,678.6z M1080.4,637.9c0,0.1,0,0.2-0.2,0.5
				C1080.3,638.3,1080.4,638.1,1080.4,637.9z"/>
			<rect x="1049.2" y="661.3" class="st23" width="8.1" height="15.9"/>
			<rect x="1059.3" y="659" class="st22" width="8.1" height="18.3"/>
			<rect x="1069.4" y="656.6" class="st23" width="8.1" height="20.7"/>
			<rect x="1079.6" y="641.8" class="st26" width="8.1" height="35.5"/>
			<rect x="1089.7" y="637.2" class="st44" width="8.1" height="40.1"/>
			<g>
				<polygon class="st22" points="1102.2,678.9 1031.3,678.9 1031.3,633 1033.1,633 1033.1,677.1 1102.2,677.1 				"/>
				<g>
					<polygon class="st22" points="1100.4,675.4 1110.2,678 1100.4,680.7 					"/>
				</g>
				<g>
					<polygon class="st46" points="1034.9,634.8 1032.2,625 1029.6,634.8 					"/>
				</g>
			</g>
			<rect x="1039" y="671.3" class="st45" width="8.1" height="6"/>
		</g>
		<rect x="1102" y="613" class="st26" width="10.3" height="8.1"/>
		<rect x="1087.8" y="613" class="st26" width="10.3" height="13.5"/>
		<rect x="1073.6" y="613" class="st26" width="10.3" height="7.5"/>
		<rect x="1059.5" y="613" class="st23" width="10.3" height="15.9"/>
		<rect x="1045.3" y="613" class="st26" width="10.4" height="12.3"/>
		<rect x="1031.1" y="613" class="st45" width="10.3" height="7.5"/>
		<rect x="1121.5" y="589" class="st26" width="46.1" height="2.9"/>
		<rect x="1121.5" y="595.1" class="st26" width="30.4" height="2.9"/>
		<rect x="1121.5" y="601.3" class="st26" width="41.2" height="2.9"/>
		<rect x="1121.5" y="607.4" class="st26" width="22.4" height="2.9"/>
		<rect x="1121.5" y="613.6" class="st26" width="38.4" height="2.9"/>
		<rect x="1121.5" y="619.7" class="st26" width="32.4" height="2.9"/>
	</g>
	<g>
		<g>
			<polygon class="st32" points="1035.3,576.4 1059,589.5 1082.8,552 1054,542 			"/>
		</g>
		<g>
			<polygon class="st47" points="1036.8,575.3 1059,587.5 1081.2,552.5 1054.3,543.1 			"/>
		</g>
		<g>
			<path class="st30" d="M1028.7,568.8c0,0,4.1-2,5.9-3s6.5-2.4,6.8-2.8c0.4-0.3,13.8-1.2,14.6-1.9c0.8-0.7,1.6,1.6-1.9,2.4
				c-3.5,0.8-8.3,2.6-8.6,4c-0.3,1.4,3.6,1.7,4,2.8s-0.1,0.9-0.7,1.1c-0.6,0.2-4.6-2-6.3-1.4c-1.8,0.6-4.5-0.2-5.8,0.2
				c-1.4,0.5-7.9,2.7-7.9,2.7L1028.7,568.8z"/>
		</g>
		<g>
			<path class="st48" d="M1036.2,571.7l2.1-0.8c0,0-2.6-6.2-3.8-6.1c-1.3,0.2-3,0.6-3,0.6L1036.2,571.7z"/>
		</g>
		<g>
			<path class="st49" d="M1036.7,572.7c-0.3-0.2-4.5-8.3-4.5-8.3l-9.1,1.2l4.9,9.6L1036.7,572.7z"/>
		</g>
		<g>
			<path class="st30" d="M1060.2,584.8c0,0,3.5-3.1,5.1-4.4c1.7-1.3,4.8-5.1,5.3-5.4c0.5-0.2,6.5-12.5,7.4-13c1-0.5-0.9-2.2-3,0.8
				s-5.7,6.8-7.1,6.5s-0.2-4-1.1-4.8s-0.9-0.2-1.3,0.2s0.1,5.1-1.2,6.5c-1.3,1.4-1.5,4.3-2.5,5.4c-1,1.1-5.6,6.4-5.6,6.4
				L1060.2,584.8z"/>
		</g>
		<g>
			<path class="st50" d="M985.6,751.3c0,0-0.7,5.2-0.8,6s-8.3-0.5-8.3-0.5l-0.7-6.2C975.8,750.7,984.6,750.6,985.6,751.3z"/>
		</g>
		<g>
			<path class="st32" d="M984.9,756.6c0,0,2.6,3.1,5.1,4.5s6.5,1.9,8,3.3c1.1,1,3.9,5.4-6.6,5.3c-10.5-0.1-15.5,0.6-16.7-1.1
				c-1.1-1.7,1.6-12.4,1.6-12.4S978.9,757.2,984.9,756.6z"/>
		</g>
		<g>
			<path class="st50" d="M1044.6,751.3c0,0-0.8,5.2-0.8,6c-0.1,0.8-8.3-0.5-8.3-0.5l-0.7-6.2
				C1034.8,750.7,1043.6,750.6,1044.6,751.3z"/>
		</g>
		<g>
			<path class="st32" d="M1043.9,756.6c0,0,2.6,3.1,5.1,4.5s11.8,2.5,13.3,3.9c1.1,1,2.9,5.1-11.9,4.7c-10.5-0.3-15.5,0.6-16.7-1.1
				c-1.1-1.7,1.6-12.4,1.6-12.4S1037.7,757.3,1043.9,756.6z"/>
		</g>
		<g>
			<path class="st32" d="M992.4,617.7c0,0-7.7,12.3-7.2,23.4c0.6,11.1-2.8,23.3-4,34.9c-1.3,12.9-6.6,43.6-6.8,50.5s0.8,29,0.8,29
				l10.6,0.2c0,0,8.9-53.6,11.2-59.1s13.8-44.4,14.2-48.8C1011.7,643.6,992.4,617.7,992.4,617.7z"/>
		</g>
		<g>
			<path class="st32" d="M1033.2,619.4c0,0,5.8,30.5,6.6,37.3c0.8,6.8,1.3,32.9,1.7,37.2c0.4,4.3,2.6,55.7,4.6,62h-13.6
				c0,0-10.4-37.4-10.4-55s-8.1-38.4-13.3-50.1c-5.2-11.7-17.1-11.9-20.3-33.6C988.5,617.1,1028.9,612.5,1033.2,619.4z"/>
		</g>
		<g>
			<path class="st30" d="M1005.4,514.3c0,0,10.4-3.9,15.2,4s4.3,23.7-0.9,25.7c-5.2,1.9-13.1,0.9-15.8-4s-5.1-12.1-5-16.9
				C999,518.4,1002.6,515.7,1005.4,514.3z"/>
		</g>
		<g>
			<path class="st30" d="M1018.5,544.4c0,0-0.4,2.8,0.3,4.2s-13.5,1.4-13.5,1.4s-1.2-7.5-3.3-13.9
				C999.8,529.8,1018.5,544.4,1018.5,544.4z"/>
		</g>
		<g>
			<path class="st51" d="M1002,536.2c0,0,1,1.6,5,1s8.9-5.9,10.5-6.5c1.7-0.6,1.7-1.6,1.7-1.6l1,1.5l1.8,0.1c0,0-1.6-4.8,0.8-6.7
				s-2.5-15.4-15.3-10.9c0,0-9.8,2.7-9.5,8.3C998.4,527,999.8,533.4,1002,536.2z"/>
		</g>
		<g>
			<path class="st47" d="M1019.6,548.4c0,0,0-2.6-1.2-2.9c-1.2-0.3-13.2-1.4-14.7-0.8v3.1C1003.7,547.8,1006.5,549.5,1019.6,548.4z"
				/>
		</g>
		<g>
			<path class="st30" d="M1018.9,527c-0.2-0.9-2.6-3.6-3.5-0.7c-0.9,2.9,1.4,6.7,2.7,6.4C1019.3,532.3,1019.5,529.4,1018.9,527z"/>
		</g>
		<g>
			<path class="st37" d="M1067.3,579.6L1067.3,579.6C1067.4,579.7,1067.4,579.7,1067.3,579.6z"/>
		</g>
		<g>
			<path class="st37" d="M983.7,647c0,0,6.4,1.9,17.2,3.1c10.9,1.2,38-0.4,38.2-1.7s-5.8-47.8-5.5-50.2s0.5-10.9,0.5-10.9
				c0.1,2.3,2.5,11.9,5.4,17.1c1,1.9,4.5,7.8,6.2,6.4c8.1-6.5,20.7-31,21.5-31.2c-0.7-0.3-6-2.7-6.7-3c-0.7-0.2-6.5,6-10.1,9.8
				c-1.6,1.7-2.7,3-2.7,3c-1-2.3-4.8-16.9-5.9-21.9c-2.6-11.4-2.2-11.8-2.2-11.8c-8-2.4-20-7.3-20-7.3l-15.9-0.6
				c0,0-14.6,3.2-20.4,5.8c-0.5,0.2-0.5,13-2,16.4l4.8,10.1c0,0,2.8,19.9,3.3,28.8C989.6,612.9,983.7,647,983.7,647z"/>
		</g>
		<g>
			<path class="st37" d="M980.6,586.6c0.4,1.3,2.3,2.5,3.5,3c0.8,0.3,1.7,0.4,2.5,0.3l0.6-0.1l0,0l10.9-2c0,0,2.4-27.5-14.9-34.1
				C982.9,553.8,976.8,574.3,980.6,586.6z"/>
		</g>
		<g>
			<path class="st52" d="M984.2,589.6L984.2,589.6c0.8,0.3,1.7,0.4,2.5,0.3l0.6-0.1l0,0l-1.1-14.1L984.2,589.6z"/>
		</g>
		<g>
			<path class="st52" d="M1047.8,589.5l1.3,5.6c0,0,1.4-5.7,1.4-8.6C1048.9,588.2,1047.8,589.5,1047.8,589.5z"/>
		</g>
		<g>
			<path class="st51" d="M1002.4,515.3c0,0-13.6-1.6-0.2,21.2L1002.4,515.3z"/>
		</g>
		<g>
			<polygon class="st32" points="1071.9,550 1073.2,547.6 1062.3,543.9 1061,546.2 			"/>
		</g>
	</g>
	<g>
		<rect x="1149.9" y="508.2" class="st23" width="9.6" height="8.2"/>
		<rect x="1163" y="483.7" class="st23" width="9.6" height="32.6"/>
	</g>
</g>
</svg>
