<?xml version="1.0" encoding="utf-8"?>
<!-- Generator: Adobe Illustrator 16.0.0, SVG Export Plug-In . SVG Version: 6.00 Build 0)  -->
<!DOCTYPE svg PUBLIC "-//W3C//DTD SVG 1.1//EN" "http://www.w3.org/Graphics/SVG/1.1/DTD/svg11.dtd">
<svg version="1.1" id="圖層_1" xmlns="http://www.w3.org/2000/svg" xmlns:xlink="http://www.w3.org/1999/xlink" x="0px" y="0px"
	 width="1920px" height="1241.448px" viewBox="0 0 1920 1241.448" enable-background="new 0 0 1920 1241.448" xml:space="preserve">
<path fill="#E4E44C" d="M0.701-1.449v1242.897c0,0,25.6-12.173,73.95-26.948c8.551-4.019,17.107-8.027,25.661-12.04
	c16.04-7.526,32.112-14.983,48.192-22.423c35.697-16.512,74.786-27.816,113.27-35.449c39.177-7.77,79.137-12.698,119.071-13.895
	c22.348-0.67,44.853-0.387,67.182,0.777c116.218,6.053,226.099,31.316,339.456,54.221c112.877,22.807,227.604,35.22,342.84,29.994
	c48.783-2.213,97.472-7.619,145.509-16.371c47.841-8.719,95.247-20.066,141.771-34.229c40.987-12.475,81.567-25.85,120.231-44.477
	c39.086-18.83,76.646-40.982,117.352-56.301c45.11-16.976,91.285-23.807,139.355-25.551c41.486-1.506,83.632,2.354,124.756,7.62
	V-1.449H0.701z"/>
</svg>
